  0
SECTION
  2
HEADER
  9
$ACADVER
  1
AC1009
  9
$DWGCODEPAGE
  3
ansi_1252
  9
$INSBASE
 10
0.0
 20
0.0
 30
0.0
  9
$EXTMIN
 10
0.2499999999999991
 20
0.2624671916633297
 30
0.0
  9
$EXTMAX
 10
47.55120654275015
 20
41.06761320315696
 30
0.0
  9
$LIMMIN
 10
0.0
 20
0.0
  9
$LIMMAX
 10
12.0
 20
9.0
  9
$ORTHOMODE
 70
     0
  9
$REGENMODE
 70
     1
  9
$FILLMODE
 70
     1
  9
$QTEXTMODE
 70
     0
  9
$MIRRTEXT
 70
     1
  9
$DRAGMODE
 70
     2
  9
$LTSCALE
 40
1.0
  9
$OSMODE
 70
    37
  9
$ATTMODE
 70
     1
  9
$TEXTSIZE
 40
0.2
  9
$TRACEWID
 40
0.05
  9
$TEXTSTYLE
  7
STANDARD
  9
$CLAYER
  8
0
  9
$CELTYPE
  6
BYLAYER
  9
$CECOLOR
 62
   256
  9
$DIMSCALE
 40
1.0
  9
$DIMASZ
 40
0.18
  9
$DIMEXO
 40
0.0625
  9
$DIMDLI
 40
0.38
  9
$DIMRND
 40
0.0
  9
$DIMDLE
 40
0.0
  9
$DIMEXE
 40
0.18
  9
$DIMTP
 40
0.0
  9
$DIMTM
 40
0.0
  9
$DIMTXT
 40
0.18
  9
$DIMCEN
 40
0.09
  9
$DIMTSZ
 40
0.0
  9
$DIMTOL
 70
     0
  9
$DIMLIM
 70
     0
  9
$DIMTIH
 70
     1
  9
$DIMTOH
 70
     1
  9
$DIMSE1
 70
     0
  9
$DIMSE2
 70
     0
  9
$DIMTAD
 70
     0
  9
$DIMZIN
 70
     0
  9
$DIMBLK
  1

  9
$DIMASO
 70
     1
  9
$DIMSHO
 70
     1
  9
$DIMPOST
  1

  9
$DIMAPOST
  1

  9
$DIMALT
 70
     0
  9
$DIMALTD
 70
     2
  9
$DIMALTF
 40
25.4
  9
$DIMLFAC
 40
1.0
  9
$DIMTOFL
 70
     0
  9
$DIMTVP
 40
0.0
  9
$DIMTIX
 70
     0
  9
$DIMSOXD
 70
     0
  9
$DIMSAH
 70
     0
  9
$DIMBLK1
  1

  9
$DIMBLK2
  1

  9
$DIMSTYLE
  2
STANDARD
  9
$DIMCLRD
 70
     0
  9
$DIMCLRE
 70
     0
  9
$DIMCLRT
 70
     0
  9
$DIMTFAC
 40
1.0
  9
$DIMGAP
 40
0.09
  9
$LUNITS
 70
     2
  9
$LUPREC
 70
     4
  9
$SKETCHINC
 40
0.1
  9
$FILLETRAD
 40
0.5
  9
$AUNITS
 70
     0
  9
$AUPREC
 70
     0
  9
$MENU
  1
.
  9
$ELEVATION
 40
0.0
  9
$PELEVATION
 40
0.0
  9
$THICKNESS
 40
0.0
  9
$LIMCHECK
 70
     0
  9
$CHAMFERA
 40
0.0
  9
$CHAMFERB
 40
0.0
  9
$SKPOLY
 70
     0
  9
$TDCREATE
 40
2454910.5
  9
$TDUPDATE
 40
2456751.378192824
  9
$TDINDWG
 40
0.0000000116
  9
$TDUSRTIMER
 40
0.0000000116
  9
$USRTIMER
 70
     1
  9
$ANGBASE
 50
0.0
  9
$ANGDIR
 70
     0
  9
$PDMODE
 70
     0
  9
$PDSIZE
 40
0.0
  9
$PLINEWID
 40
0.0
  9
$COORDS
 70
     1
  9
$SPLFRAME
 70
     0
  9
$SPLINETYPE
 70
     6
  9
$SPLINESEGS
 70
     8
  9
$ATTDIA
 70
     0
  9
$ATTREQ
 70
     1
  9
$HANDLING
 70
     1
  9
$HANDSEED
  5
3E1
  9
$SURFTAB1
 70
     6
  9
$SURFTAB2
 70
     6
  9
$SURFTYPE
 70
     6
  9
$SURFU
 70
     6
  9
$SURFV
 70
     6
  9
$UCSNAME
  2

  9
$UCSORG
 10
0.0
 20
0.0
 30
0.0
  9
$UCSXDIR
 10
1.0
 20
0.0
 30
0.0
  9
$UCSYDIR
 10
0.0
 20
1.0
 30
0.0
  9
$PUCSNAME
  2

  9
$PUCSORG
 10
0.0
 20
0.0
 30
0.0
  9
$PUCSXDIR
 10
1.0
 20
0.0
 30
0.0
  9
$PUCSYDIR
 10
0.0
 20
1.0
 30
0.0
  9
$USERI1
 70
     0
  9
$USERI2
 70
     0
  9
$USERI3
 70
     0
  9
$USERI4
 70
     0
  9
$USERI5
 70
     0
  9
$USERR1
 40
0.0
  9
$USERR2
 40
0.0
  9
$USERR3
 40
0.0
  9
$USERR4
 40
0.0
  9
$USERR5
 40
0.0
  9
$WORLDVIEW
 70
     1
  9
$SHADEDGE
 70
     3
  9
$SHADEDIF
 70
    70
  9
$TILEMODE
 70
     1
  9
$MAXACTVP
 70
    64
  9
$PLIMCHECK
 70
     0
  9
$PEXTMIN
 10
1.000000000000000E+20
 20
1.000000000000000E+20
 30
1.000000000000000E+20
  9
$PEXTMAX
 10
-1.000000000000000E+20
 20
-1.000000000000000E+20
 30
-1.000000000000000E+20
  9
$PLIMMIN
 10
0.0
 20
0.0
  9
$PLIMMAX
 10
12.0
 20
9.0
  9
$UNITMODE
 70
     0
  9
$VISRETAIN
 70
     1
  9
$PLINEGEN
 70
     0
  9
$PSLTSCALE
 70
     1
  0
ENDSEC
  0
SECTION
  2
TABLES
  0
TABLE
  2
VPORT
 70
     1
  0
VPORT
  2
*ACTIVE
 70
     0
 10
0.0
 20
0.0
 11
1.0
 21
1.0
 12
10.42990654205607
 22
4.5
 13
0.0
 23
0.0
 14
0.5
 24
0.5
 15
0.5
 25
0.5
 16
0.0
 26
0.0
 36
1.0
 17
0.0
 27
0.0
 37
0.0
 40
9.0
 41
1.972972972850329
 42
50.0
 43
0.0
 44
0.0
 50
0.0
 51
0.0
 71
     0
 72
   100
 73
     1
 74
     3
 75
     0
 76
     0
 77
     0
 78
     0
  0
ENDTAB
  0
TABLE
  2
LTYPE
 70
     2
  0
LTYPE
  2
CONTINUOUS
 70
     0
  3
Solid line
 72
    65
 73
     0
 40
0.0
  0
LTYPE
  2
CONTINUOUS2
 70
     0
  3
Solid Line
 72
    65
 73
     0
 40
0.0
  0
ENDTAB
  0
TABLE
  2
LAYER
 70
     2
  0
LAYER
  2
0
 70
     0
 62
     7
  6
CONTINUOUS
  0
LAYER
  2
LAYER0
 70
     0
 62
    13
  6
CONTINUOUS
  0
ENDTAB
  0
TABLE
  2
STYLE
 70
     1
  0
STYLE
  2
STANDARD
 70
     0
 40
0.0
 41
1.0
 50
0.0
 71
     0
 42
0.2
  3
txt
  4

  0
ENDTAB
  0
TABLE
  2
VIEW
 70
     0
  0
ENDTAB
  0
TABLE
  2
UCS
 70
     0
  0
ENDTAB
  0
TABLE
  2
APPID
 70
     1
  0
APPID
  2
ACAD
 70
     0
  0
ENDTAB
  0
TABLE
  2
DIMSTYLE
 70
     1
  0
DIMSTYLE
  2
STANDARD
 70
     0
  3

  4

  5

  6

  7

 40
1.0
 41
0.18
 42
0.0625
 43
0.38
 44
0.18
 45
0.0
 46
0.0
 47
0.0
 48
0.0
140
0.18
141
0.09
142
0.0
143
25.4
144
1.0
145
0.0
146
1.0
147
0.09
 71
     0
 72
     0
 73
     1
 74
     1
 75
     0
 76
     0
 77
     0
 78
     0
170
     0
171
     2
172
     0
173
     0
174
     0
175
     0
176
     0
177
     0
178
     0
  0
ENDTAB
  0
ENDSEC
  0
SECTION
  2
BLOCKS
  0
BLOCK
  8
0
  2
$MODEL_SPACE
 70
     0
 10
0.0
 20
0.0
 30
0.0
  3
$MODEL_SPACE
  1

  0
ENDBLK
  5
21
  8
0
  0
BLOCK
 67
     1
  8
0
  2
$PAPER_SPACE
 70
     0
 10
0.0
 20
0.0
 30
0.0
  3
$PAPER_SPACE
  1

  0
ENDBLK
  5
1D
 67
     1
  8
0
  0
ENDSEC
  0
SECTION
  2
ENTITIES
  0
POLYLINE
  5
6C
  8
LAYER0
 66
     1
 10
0.0
 20
0.0
 30
0.0
 70
     1
  0
VERTEX
  5
B8
  8
LAYER0
 10
22.75
 20
1.095800524996662
 30
0.0
  0
VERTEX
  5
B9
  8
LAYER0
 10
22.30177669529663
 20
1.095800524996662
 30
0.0
 42
1.0
  0
VERTEX
  5
BA
  8
LAYER0
 10
22.125
 20
0.9190238297000253
 30
0.0
  0
VERTEX
  5
BB
  8
LAYER0
 10
22.125
 20
0.2624671916633297
 30
0.0
  0
VERTEX
  5
BC
  8
LAYER0
 10
0.875
 20
0.2624671916633297
 30
0.0
  0
VERTEX
  5
BD
  8
LAYER0
 10
0.875
 20
0.9190238297000253
 30
0.0
 42
1.0
  0
VERTEX
  5
BE
  8
LAYER0
 10
0.698223304703363
 20
1.095800524996662
 30
0.0
  0
VERTEX
  5
BF
  8
LAYER0
 10
0.2500000000000036
 20
1.095800524996662
 30
0.0
  0
VERTEX
  5
C0
  8
LAYER0
 10
0.2500000000000009
 20
2.095800524996655
 30
0.0
  0
VERTEX
  5
C1
  8
LAYER0
 10
0.6982233047033602
 20
2.095800524996655
 30
0.0
 42
1.0
  0
VERTEX
  5
C2
  8
LAYER0
 10
0.8749999999999971
 20
2.272577220293291
 30
0.0
  0
VERTEX
  5
C3
  8
LAYER0
 10
0.8749999999999958
 20
3.669023829700023
 30
0.0
 42
1.0
  0
VERTEX
  5
C4
  8
LAYER0
 10
0.6982233047033568
 20
3.84580052499666
 30
0.0
  0
VERTEX
  5
C5
  8
LAYER0
 10
0.25
 20
3.845800524996655
 30
0.0
  0
VERTEX
  5
C6
  8
LAYER0
 10
0.2500000000000018
 20
4.595800524996655
 30
0.0
  0
VERTEX
  5
C7
  8
LAYER0
 10
0.6982233047033628
 20
4.59580052499666
 30
0.0
 42
1.0
  0
VERTEX
  5
C8
  8
LAYER0
 10
0.8749999999999976
 20
4.772577220293297
 30
0.0
  0
VERTEX
  5
C9
  8
LAYER0
 10
0.8749999999999998
 20
6.169023829700027
 30
0.0
 42
1.0
  0
VERTEX
  5
CA
  8
LAYER0
 10
0.6982233047033628
 20
6.345800524996665
 30
0.0
  0
VERTEX
  5
CB
  8
LAYER0
 10
0.2500000000000027
 20
6.345800524996665
 30
0.0
  0
VERTEX
  5
CC
  8
LAYER0
 10
0.2499999999999991
 20
7.345800524996662
 30
0.0
  0
VERTEX
  5
CD
  8
LAYER0
 10
0.6982233047033604
 20
7.345800524996662
 30
0.0
 42
1.0
  0
VERTEX
  5
CE
  8
LAYER0
 10
0.8749999999999973
 20
7.522577220293298
 30
0.0
  0
VERTEX
  5
CF
  8
LAYER0
 10
0.875
 20
8.179133858329998
 30
0.0
  0
VERTEX
  5
D0
  8
LAYER0
 10
22.125
 20
8.179133858329998
 30
0.0
  0
VERTEX
  5
D1
  8
LAYER0
 10
22.125
 20
7.522577220293298
 30
0.0
 42
1.0
  0
VERTEX
  5
D2
  8
LAYER0
 10
22.30177669529663
 20
7.345800524996662
 30
0.0
  0
VERTEX
  5
D3
  8
LAYER0
 10
22.74999999999999
 20
7.345800524996662
 30
0.0
  0
VERTEX
  5
D4
  8
LAYER0
 10
22.74999999999999
 20
6.345800524996662
 30
0.0
  0
VERTEX
  5
D5
  8
LAYER0
 10
22.30177669529663
 20
6.345800524996662
 30
0.0
 42
1.0
  0
VERTEX
  5
D6
  8
LAYER0
 10
22.125
 20
6.169023829700025
 30
0.0
  0
VERTEX
  5
D7
  8
LAYER0
 10
22.125
 20
4.772577220293298
 30
0.0
 42
1.0
  0
VERTEX
  5
D8
  8
LAYER0
 10
22.30177669529663
 20
4.595800524996662
 30
0.0
  0
VERTEX
  5
D9
  8
LAYER0
 10
22.75
 20
4.595800524996662
 30
0.0
  0
VERTEX
  5
DA
  8
LAYER0
 10
22.75
 20
3.845800524996662
 30
0.0
  0
VERTEX
  5
DB
  8
LAYER0
 10
22.30177669529663
 20
3.845800524996662
 30
0.0
 42
1.0
  0
VERTEX
  5
DC
  8
LAYER0
 10
22.125
 20
3.669023829700025
 30
0.0
  0
VERTEX
  5
DD
  8
LAYER0
 10
22.125
 20
2.272577220293302
 30
0.0
 42
1.0
  0
VERTEX
  5
DE
  8
LAYER0
 10
22.30177669529663
 20
2.095800524996665
 30
0.0
  0
VERTEX
  5
DF
  8
LAYER0
 10
22.75
 20
2.095800524996665
 30
0.0
  0
SEQEND
  5
39C
  8
LAYER0
  0
POLYLINE
  5
6D
  8
LAYER0
 66
     1
 10
0.0
 20
0.0
 30
0.0
 70
     1
  0
VERTEX
  5
E0
  8
LAYER0
 10
0.875
 20
16.11220472444
 30
0.0
  0
VERTEX
  5
E1
  8
LAYER0
 10
22.125
 20
16.11220472444
 30
0.0
  0
VERTEX
  5
E2
  8
LAYER0
 10
22.125
 20
16.0411223124337
 30
0.0
  0
VERTEX
  5
E3
  8
LAYER0
 10
22.75
 20
16.0411223124337
 30
0.0
  0
VERTEX
  5
E4
  8
LAYER0
 10
22.75
 20
14.26318497188159
 30
0.0
  0
VERTEX
  5
E5
  8
LAYER0
 10
22.30177669529664
 20
14.26318497188159
 30
0.0
 42
1.0
  0
VERTEX
  5
E6
  8
LAYER0
 10
22.125
 20
14.08640827658495
 30
0.0
  0
VERTEX
  5
E7
  8
LAYER0
 10
22.125
 20
12.54482504738408
 30
0.0
 42
1.0
  0
VERTEX
  5
E8
  8
LAYER0
 10
22.30177669529664
 20
12.36804835208745
 30
0.0
  0
VERTEX
  5
E9
  8
LAYER0
 10
22.75
 20
12.36804835208745
 30
0.0
  0
VERTEX
  5
EA
  8
LAYER0
 10
22.75
 20
11.48793289928035
 30
0.0
  0
VERTEX
  5
EB
  8
LAYER0
 10
22.30177669529664
 20
11.48793289928035
 30
0.0
 42
1.0
  0
VERTEX
  5
EC
  8
LAYER0
 10
22.125
 20
11.31115620398371
 30
0.0
  0
VERTEX
  5
ED
  8
LAYER0
 10
22.125
 20
10.64968842758994
 30
0.0
 42
1.0
  0
VERTEX
  5
EE
  8
LAYER0
 10
22.30177669529664
 20
10.4729117322933
 30
0.0
  0
VERTEX
  5
EF
  8
LAYER0
 10
22.75
 20
10.4729117322933
 30
0.0
  0
VERTEX
  5
F0
  8
LAYER0
 10
22.75
 20
9.06979453494049
 30
0.0
  0
VERTEX
  5
F1
  8
LAYER0
 10
22.30177669529664
 20
9.06979453494049
 30
0.0
 42
1.0
  0
VERTEX
  5
F2
  8
LAYER0
 10
22.125
 20
8.893017839643852
 30
0.0
  0
VERTEX
  5
F3
  8
LAYER0
 10
22.12500000000001
 20
8.476592457916443
 30
0.0
 42
0.199482383345309
  0
VERTEX
  5
F4
  8
LAYER0
 10
0.8749999999999689
 20
8.476592457916443
 30
0.0
  0
VERTEX
  5
F5
  8
LAYER0
 10
0.8749999999999907
 20
8.893017839643845
 30
0.0
 42
1.0
  0
VERTEX
  5
F6
  8
LAYER0
 10
0.6982233047033538
 20
9.06979453494049
 30
0.0
  0
VERTEX
  5
F7
  8
LAYER0
 10
0.25
 20
9.06979453494049
 30
0.0
  0
VERTEX
  5
F8
  8
LAYER0
 10
0.25
 20
10.4729117322933
 30
0.0
  0
VERTEX
  5
F9
  8
LAYER0
 10
0.698223304703363
 20
10.4729117322933
 30
0.0
 42
1.0
  0
VERTEX
  5
FA
  8
LAYER0
 10
0.875
 20
10.64968842758994
 30
0.0
  0
VERTEX
  5
FB
  8
LAYER0
 10
0.875
 20
11.31115620398371
 30
0.0
 42
1.0
  0
VERTEX
  5
FC
  8
LAYER0
 10
0.698223304703363
 20
11.48793289928035
 30
0.0
  0
VERTEX
  5
FD
  8
LAYER0
 10
0.25
 20
11.48793289928035
 30
0.0
  0
VERTEX
  5
FE
  8
LAYER0
 10
0.25
 20
12.36804835208745
 30
0.0
  0
VERTEX
  5
FF
  8
LAYER0
 10
0.698223304703363
 20
12.36804835208745
 30
0.0
 42
1.0
  0
VERTEX
  5
100
  8
LAYER0
 10
0.875
 20
12.54482504738408
 30
0.0
  0
VERTEX
  5
101
  8
LAYER0
 10
0.875
 20
14.08640827658495
 30
0.0
 42
1.0
  0
VERTEX
  5
102
  8
LAYER0
 10
0.698223304703363
 20
14.26318497188159
 30
0.0
  0
VERTEX
  5
103
  8
LAYER0
 10
0.25
 20
14.26318497188159
 30
0.0
  0
VERTEX
  5
104
  8
LAYER0
 10
0.25
 20
16.0411223124337
 30
0.0
  0
VERTEX
  5
105
  8
LAYER0
 10
0.875
 20
16.0411223124337
 30
0.0
  0
SEQEND
  5
39D
  8
LAYER0
  0
POLYLINE
  5
6E
  8
LAYER0
 66
     1
 10
0.0
 20
0.0
 30
0.0
 70
     1
  0
VERTEX
  5
106
  8
LAYER0
 10
23.71824714592128
 20
23.12377326104291
 30
0.0
  0
VERTEX
  5
107
  8
LAYER0
 10
44.96824714592128
 20
23.12377326104291
 30
0.0
  0
VERTEX
  5
108
  8
LAYER0
 10
44.96824714592128
 20
23.0526908490366
 30
0.0
  0
VERTEX
  5
109
  8
LAYER0
 10
45.59324714592128
 20
23.0526908490366
 30
0.0
  0
VERTEX
  5
10A
  8
LAYER0
 10
45.59324714592128
 20
21.2747535084845
 30
0.0
  0
VERTEX
  5
10B
  8
LAYER0
 10
45.14502384121792
 20
21.2747535084845
 30
0.0
 42
1.0
  0
VERTEX
  5
10C
  8
LAYER0
 10
44.96824714592128
 20
21.09797681318786
 30
0.0
  0
VERTEX
  5
10D
  8
LAYER0
 10
44.96824714592128
 20
19.55639358398699
 30
0.0
 42
1.0
  0
VERTEX
  5
10E
  8
LAYER0
 10
45.14502384121792
 20
19.37961688869035
 30
0.0
  0
VERTEX
  5
10F
  8
LAYER0
 10
45.59324714592128
 20
19.37961688869035
 30
0.0
  0
VERTEX
  5
110
  8
LAYER0
 10
45.59324714592128
 20
18.49950143588325
 30
0.0
  0
VERTEX
  5
111
  8
LAYER0
 10
45.14502384121792
 20
18.49950143588325
 30
0.0
 42
1.0
  0
VERTEX
  5
112
  8
LAYER0
 10
44.96824714592128
 20
18.32272474058662
 30
0.0
  0
VERTEX
  5
113
  8
LAYER0
 10
44.96824714592128
 20
17.66125696419285
 30
0.0
 42
1.0
  0
VERTEX
  5
114
  8
LAYER0
 10
45.14502384121792
 20
17.48448026889621
 30
0.0
  0
VERTEX
  5
115
  8
LAYER0
 10
45.59324714592128
 20
17.48448026889621
 30
0.0
  0
VERTEX
  5
116
  8
LAYER0
 10
45.59324714592128
 20
16.0813630715434
 30
0.0
  0
VERTEX
  5
117
  8
LAYER0
 10
45.14502384121792
 20
16.0813630715434
 30
0.0
 42
1.0
  0
VERTEX
  5
118
  8
LAYER0
 10
44.96824714592128
 20
15.90458637624676
 30
0.0
  0
VERTEX
  5
119
  8
LAYER0
 10
44.96824714592129
 20
15.48816099451935
 30
0.0
 42
0.199482383345309
  0
VERTEX
  5
11A
  8
LAYER0
 10
23.71824714592125
 20
15.48816099451935
 30
0.0
  0
VERTEX
  5
11B
  8
LAYER0
 10
23.71824714592127
 20
15.90458637624675
 30
0.0
 42
1.0
  0
VERTEX
  5
11C
  8
LAYER0
 10
23.54147045062464
 20
16.0813630715434
 30
0.0
  0
VERTEX
  5
11D
  8
LAYER0
 10
23.09324714592128
 20
16.0813630715434
 30
0.0
  0
VERTEX
  5
11E
  8
LAYER0
 10
23.09324714592128
 20
17.48448026889621
 30
0.0
  0
VERTEX
  5
11F
  8
LAYER0
 10
23.54147045062464
 20
17.48448026889621
 30
0.0
 42
1.0
  0
VERTEX
  5
120
  8
LAYER0
 10
23.71824714592128
 20
17.66125696419285
 30
0.0
  0
VERTEX
  5
121
  8
LAYER0
 10
23.71824714592128
 20
18.32272474058662
 30
0.0
 42
1.0
  0
VERTEX
  5
122
  8
LAYER0
 10
23.54147045062464
 20
18.49950143588325
 30
0.0
  0
VERTEX
  5
123
  8
LAYER0
 10
23.09324714592128
 20
18.49950143588325
 30
0.0
  0
VERTEX
  5
124
  8
LAYER0
 10
23.09324714592128
 20
19.37961688869035
 30
0.0
  0
VERTEX
  5
125
  8
LAYER0
 10
23.54147045062464
 20
19.37961688869035
 30
0.0
 42
1.0
  0
VERTEX
  5
126
  8
LAYER0
 10
23.71824714592128
 20
19.55639358398699
 30
0.0
  0
VERTEX
  5
127
  8
LAYER0
 10
23.71824714592128
 20
21.09797681318786
 30
0.0
 42
1.0
  0
VERTEX
  5
128
  8
LAYER0
 10
23.54147045062464
 20
21.2747535084845
 30
0.0
  0
VERTEX
  5
129
  8
LAYER0
 10
23.09324714592128
 20
21.2747535084845
 30
0.0
  0
VERTEX
  5
12A
  8
LAYER0
 10
23.09324714592128
 20
23.0526908490366
 30
0.0
  0
VERTEX
  5
12B
  8
LAYER0
 10
23.71824714592128
 20
23.0526908490366
 30
0.0
  0
SEQEND
  5
39E
  8
LAYER0
  0
POLYLINE
  5
6F
  8
LAYER0
 66
     1
 10
0.0
 20
0.0
 30
0.0
 70
     1
  0
VERTEX
  5
12C
  8
LAYER0
 10
0.2499999999999991
 20
20.69881889765
 30
0.0
  0
VERTEX
  5
12D
  8
LAYER0
 10
22.75
 20
20.69881889765
 30
0.0
  0
VERTEX
  5
12E
  8
LAYER0
 10
22.75
 20
19.87229592029041
 30
0.0
  0
VERTEX
  5
12F
  8
LAYER0
 10
22.30177669529665
 20
19.87229592029041
 30
0.0
 42
1.0
  0
VERTEX
  5
130
  8
LAYER0
 10
22.12500000000001
 20
19.69551922499377
 30
0.0
  0
VERTEX
  5
131
  8
LAYER0
 10
22.12500000000001
 20
19.04577294293081
 30
0.0
  0
VERTEX
  5
132
  8
LAYER0
 10
0.875
 20
19.04577294293081
 30
0.0
  0
VERTEX
  5
133
  8
LAYER0
 10
0.875
 20
19.69551922499377
 30
0.0
 42
1.0
  0
VERTEX
  5
134
  8
LAYER0
 10
0.698223304703363
 20
19.87229592029041
 30
0.0
  0
VERTEX
  5
135
  8
LAYER0
 10
0.2499999999999991
 20
19.87229592029041
 30
0.0
  0
SEQEND
  5
39F
  8
LAYER0
  0
POLYLINE
  5
70
  8
LAYER0
 66
     1
 10
0.0
 20
0.0
 30
0.0
 70
     1
  0
VERTEX
  5
136
  8
LAYER0
 10
23.00590551172
 20
15.01474947555838
 30
0.0
  0
VERTEX
  5
137
  8
LAYER0
 10
45.50590551172
 20
15.01474947555838
 30
0.0
  0
VERTEX
  5
138
  8
LAYER0
 10
45.50590551172
 20
14.18822649819878
 30
0.0
  0
VERTEX
  5
139
  8
LAYER0
 10
45.05768220701665
 20
14.18822649819878
 30
0.0
 42
1.0
  0
VERTEX
  5
13A
  8
LAYER0
 10
44.88090551172002
 20
14.01144980290215
 30
0.0
  0
VERTEX
  5
13B
  8
LAYER0
 10
44.88090551172002
 20
13.36170352083919
 30
0.0
  0
VERTEX
  5
13C
  8
LAYER0
 10
23.63090551172
 20
13.36170352083919
 30
0.0
  0
VERTEX
  5
13D
  8
LAYER0
 10
23.63090551172
 20
14.01144980290215
 30
0.0
 42
1.0
  0
VERTEX
  5
13E
  8
LAYER0
 10
23.45412881642336
 20
14.18822649819878
 30
0.0
  0
VERTEX
  5
13F
  8
LAYER0
 10
23.00590551172
 20
14.18822649819878
 30
0.0
  0
SEQEND
  5
3A0
  8
LAYER0
  0
POLYLINE
  5
71
  8
LAYER0
 66
     1
 10
0.0
 20
0.0
 30
0.0
 70
     1
  0
VERTEX
  5
140
  8
LAYER0
 10
24.55120654275014
 20
32.81147124280864
 30
0.0
  0
VERTEX
  5
141
  8
LAYER0
 10
24.55120654275015
 20
34.81147124280864
 30
0.0
  0
VERTEX
  5
142
  8
LAYER0
 10
25.42620654275014
 20
34.81147124280864
 30
0.0
 42
-0.0456881701637419
  0
VERTEX
  5
143
  8
LAYER0
 10
46.67620654275013
 20
34.81147124280863
 30
0.0
  0
VERTEX
  5
144
  8
LAYER0
 10
47.55120654275013
 20
34.81147124280864
 30
0.0
  0
VERTEX
  5
145
  8
LAYER0
 10
47.55120654275015
 20
32.81147124280864
 30
0.0
  0
VERTEX
  5
146
  8
LAYER0
 10
46.67620654275012
 20
32.81147124280864
 30
0.0
 42
0.1678893620153601
  0
VERTEX
  5
147
  8
LAYER0
 10
25.42620654275015
 20
32.81147124280864
 30
0.0
  0
SEQEND
  5
3A1
  8
LAYER0
  0
POLYLINE
  5
72
  8
LAYER0
 66
     1
 10
0.0
 20
0.0
 30
0.0
 70
     1
  0
VERTEX
  5
148
  8
LAYER0
 10
6.599710803314739
 20
33.70831136992473
 30
0.0
  0
VERTEX
  5
149
  8
LAYER0
 10
6.599710803314739
 20
37.00598936992473
 30
0.0
  0
VERTEX
  5
14A
  8
LAYER0
 10
5.599710803314739
 20
37.00598936992473
 30
0.0
  0
VERTEX
  5
14B
  8
LAYER0
 10
5.599710803314739
 20
33.70831136992473
 30
0.0
  0
SEQEND
  5
3A2
  8
LAYER0
  0
POLYLINE
  5
73
  8
LAYER0
 66
     1
 10
0.0
 20
0.0
 30
0.0
 70
     1
  0
VERTEX
  5
14C
  8
LAYER0
 10
5.266377469981403
 20
38.86436577006783
 30
0.0
  0
VERTEX
  5
14D
  8
LAYER0
 10
1.099710803314739
 20
31.67686577006783
 30
0.0
  0
VERTEX
  5
14E
  8
LAYER0
 10
1.158997117622146
 20
31.35079104137709
 30
0.0
 42
-1.0
  0
VERTEX
  5
14F
  8
LAYER0
 10
1.016694622914574
 20
31.14524299346616
 30
0.0
  0
VERTEX
  5
150
  8
LAYER0
 10
0.575701200411391
 20
31.06506237119284
 30
0.0
  0
VERTEX
  5
151
  8
LAYER0
 10
0.7120648367750241
 20
30.31506237119285
 30
0.0
  0
VERTEX
  5
152
  8
LAYER0
 10
1.153058259278207
 20
30.39524299346616
 30
0.0
 42
-1.0
  0
VERTEX
  5
153
  8
LAYER0
 10
1.358606307189152
 20
30.25294049875858
 30
0.0
  0
VERTEX
  5
154
  8
LAYER0
 10
1.431724390349419
 20
29.85079104137709
 30
0.0
 42
-1.0
  0
VERTEX
  5
155
  8
LAYER0
 10
1.28942189564184
 20
29.64524299346616
 30
0.0
  0
VERTEX
  5
156
  8
LAYER0
 10
0.8484284731386642
 20
29.56506237119285
 30
0.0
  0
VERTEX
  5
157
  8
LAYER0
 10
1.121155745865938
 20
28.06506237119285
 30
0.0
  0
VERTEX
  5
158
  8
LAYER0
 10
1.562149168369121
 20
28.14524299346616
 30
0.0
 42
-1.0
  0
VERTEX
  5
159
  8
LAYER0
 10
1.767697216280059
 20
28.00294049875858
 30
0.0
  0
VERTEX
  5
15A
  8
LAYER0
 10
1.840815299440326
 20
27.6007910413771
 30
0.0
 42
-1.0
  0
VERTEX
  5
15B
  8
LAYER0
 10
1.698512804732747
 20
27.39524299346615
 30
0.0
  0
VERTEX
  5
15C
  8
LAYER0
 10
1.257519382229571
 20
27.31506237119285
 30
0.0
  0
VERTEX
  5
15D
  8
LAYER0
 10
1.393883018593211
 20
26.56506237119285
 30
0.0
  0
VERTEX
  5
15E
  8
LAYER0
 10
1.834876441096394
 20
26.64524299346615
 30
0.0
 42
-1.0
  0
VERTEX
  5
15F
  8
LAYER0
 10
2.040424489007332
 20
26.50294049875857
 30
0.0
  0
VERTEX
  5
160
  8
LAYER0
 10
2.141377469981403
 20
25.94769910340117
 30
0.0
  0
VERTEX
  5
161
  8
LAYER0
 10
2.141377469981403
 20
24.74978243673451
 30
0.0
  0
VERTEX
  5
162
  8
LAYER0
 10
3.287210803314739
 20
24.74978243673451
 30
0.0
  0
VERTEX
  5
163
  8
LAYER0
 10
3.287210803314739
 20
24.90603243673451
 30
0.0
 42
-0.1296296296139853
  0
VERTEX
  5
164
  8
LAYER0
 10
8.91221080331474
 20
24.90603243673451
 30
0.0
  0
VERTEX
  5
165
  8
LAYER0
 10
8.91221080331474
 20
24.74978243673451
 30
0.0
  0
VERTEX
  5
166
  8
LAYER0
 10
10.05804413664807
 20
24.74978243673451
 30
0.0
  0
VERTEX
  5
167
  8
LAYER0
 10
10.05804413664807
 20
25.94769910340117
 30
0.0
  0
VERTEX
  5
168
  8
LAYER0
 10
10.15899711762215
 20
26.50294049875858
 30
0.0
 42
-1.0
  0
VERTEX
  5
169
  8
LAYER0
 10
10.36454516553309
 20
26.64524299346615
 30
0.0
  0
VERTEX
  5
16A
  8
LAYER0
 10
10.80553858803627
 20
26.56506237119285
 30
0.0
  0
VERTEX
  5
16B
  8
LAYER0
 10
10.94190222439991
 20
27.31506237119285
 30
0.0
  0
VERTEX
  5
16C
  8
LAYER0
 10
10.50090880189673
 20
27.39524299346615
 30
0.0
 42
-1.0
  0
VERTEX
  5
16D
  8
LAYER0
 10
10.35860630718915
 20
27.6007910413771
 30
0.0
  0
VERTEX
  5
16E
  8
LAYER0
 10
10.43172439034942
 20
28.00294049875858
 30
0.0
 42
-1.0
  0
VERTEX
  5
16F
  8
LAYER0
 10
10.63727243826036
 20
28.14524299346616
 30
0.0
  0
VERTEX
  5
170
  8
LAYER0
 10
11.07826586076355
 20
28.06506237119285
 30
0.0
  0
VERTEX
  5
171
  8
LAYER0
 10
11.35099313349081
 20
29.56506237119285
 30
0.0
  0
VERTEX
  5
172
  8
LAYER0
 10
10.90999971098764
 20
29.64524299346616
 30
0.0
 42
-1.0
  0
VERTEX
  5
173
  8
LAYER0
 10
10.76769721628006
 20
29.85079104137709
 30
0.0
  0
VERTEX
  5
174
  8
LAYER0
 10
10.84081529944033
 20
30.25294049875858
 30
0.0
 42
-1.0
  0
VERTEX
  5
175
  8
LAYER0
 10
11.04636334735127
 20
30.39524299346616
 30
0.0
  0
VERTEX
  5
176
  8
LAYER0
 10
11.48735676985445
 20
30.31506237119285
 30
0.0
  0
VERTEX
  5
177
  8
LAYER0
 10
11.62372040621809
 20
31.06506237119285
 30
0.0
  0
VERTEX
  5
178
  8
LAYER0
 10
11.18272698371491
 20
31.14524299346616
 30
0.0
 42
-1.0
  0
VERTEX
  5
179
  8
LAYER0
 10
11.04042448900733
 20
31.35079104137709
 30
0.0
  0
VERTEX
  5
17A
  8
LAYER0
 10
11.09971080331474
 20
31.67686577006783
 30
0.0
  0
VERTEX
  5
17B
  8
LAYER0
 10
6.933044136648075
 20
38.86436577006783
 30
0.0
  0
VERTEX
  5
17C
  8
LAYER0
 10
6.933044136648075
 20
40.27061577006783
 30
0.0
 42
0.2119995746949578
  0
VERTEX
  5
17D
  8
LAYER0
 10
6.099710803314739
 20
40.79144910340118
 30
0.0
 42
0.2119995757920455
  0
VERTEX
  5
17E
  8
LAYER0
 10
5.266377469981403
 20
40.27061577006783
 30
0.0
  0
SEQEND
  5
3A3
  8
LAYER0
  0
POLYLINE
  5
74
  8
LAYER0
 66
     1
 10
0.0
 20
0.0
 30
0.0
 70
     1
  0
VERTEX
  5
17F
  8
LAYER0
 10
6.369710803314738
 20
40.13153432008757
 30
0.0
 42
0.9427760912618925
  0
VERTEX
  5
180
  8
LAYER0
 10
6.165003753477603
 20
40.33624136992474
 30
0.0
  0
VERTEX
  5
181
  8
LAYER0
 10
6.034417853151876
 20
40.33624136992474
 30
0.0
 42
0.9427760912617947
  0
VERTEX
  5
182
  8
LAYER0
 10
5.829710803314739
 20
40.13153432008759
 30
0.0
  0
VERTEX
  5
183
  8
LAYER0
 10
5.829710803314741
 20
38.50094841976186
 30
0.0
 42
0.9427760912618993
  0
VERTEX
  5
184
  8
LAYER0
 10
6.034417853151878
 20
38.29624136992473
 30
0.0
  0
VERTEX
  5
185
  8
LAYER0
 10
6.165003753477602
 20
38.29624136992473
 30
0.0
 42
0.9427760912618474
  0
VERTEX
  5
186
  8
LAYER0
 10
6.369710803314737
 20
38.50094841976185
 30
0.0
  0
SEQEND
  5
3A4
  8
LAYER0
  0
POLYLINE
  5
75
  8
LAYER0
 66
     1
 10
0.0
 20
0.0
 30
0.0
 70
     1
  0
VERTEX
  5
187
  8
LAYER0
 10
4.909417853151878
 20
33.51010929290068
 30
0.0
 42
0.9427760912618965
  0
VERTEX
  5
188
  8
LAYER0
 10
4.70471080331474
 20
33.30540224306355
 30
0.0
  0
VERTEX
  5
189
  8
LAYER0
 10
4.704710803314739
 20
32.27169914538501
 30
0.0
 42
0.9427760912618588
  0
VERTEX
  5
18A
  8
LAYER0
 10
4.909417853151878
 20
32.06699209554787
 30
0.0
  0
VERTEX
  5
18B
  8
LAYER0
 10
5.040003753477602
 20
32.06699209554787
 30
0.0
 42
0.9427760912618821
  0
VERTEX
  5
18C
  8
LAYER0
 10
5.244710803314743
 20
32.27169914538501
 30
0.0
  0
VERTEX
  5
18D
  8
LAYER0
 10
5.244710803314742
 20
33.30540224306355
 30
0.0
 42
0.9427760912618525
  0
VERTEX
  5
18E
  8
LAYER0
 10
5.040003753477601
 20
33.51010929290068
 30
0.0
  0
SEQEND
  5
3A5
  8
LAYER0
  0
POLYLINE
  5
76
  8
LAYER0
 66
     1
 10
0.0
 20
0.0
 30
0.0
 70
     1
  0
VERTEX
  5
18F
  8
LAYER0
 10
3.855821803314741
 20
31.36117605356403
 30
0.0
 42
0.9427760912618609
  0
VERTEX
  5
190
  8
LAYER0
 10
3.651114753477602
 20
31.56588310340117
 30
0.0
  0
VERTEX
  5
191
  8
LAYER0
 10
3.131639853151871
 20
31.56588310340117
 30
0.0
 42
0.9427760912618804
  0
VERTEX
  5
192
  8
LAYER0
 10
2.926932803314734
 20
31.36117605356403
 30
0.0
  0
VERTEX
  5
193
  8
LAYER0
 10
2.926932803314733
 20
31.2305901532383
 30
0.0
 42
0.9427760912618701
  0
VERTEX
  5
194
  8
LAYER0
 10
3.131639853151874
 20
31.02588310340117
 30
0.0
  0
VERTEX
  5
195
  8
LAYER0
 10
3.651114753477602
 20
31.02588310340117
 30
0.0
 42
0.9427760912618809
  0
VERTEX
  5
196
  8
LAYER0
 10
3.855821803314741
 20
31.2305901532383
 30
0.0
  0
SEQEND
  5
3A6
  8
LAYER0
  0
POLYLINE
  5
77
  8
LAYER0
 66
     1
 10
0.0
 20
0.0
 30
0.0
 70
     1
  0
VERTEX
  5
197
  8
LAYER0
 10
4.70471080331474
 20
30.37656252559086
 30
0.0
 42
0.9427760912618756
  0
VERTEX
  5
198
  8
LAYER0
 10
4.909417853151878
 20
30.17185547575373
 30
0.0
  0
VERTEX
  5
199
  8
LAYER0
 10
5.040003753477601
 20
30.17185547575373
 30
0.0
 42
0.9427760912618827
  0
VERTEX
  5
19A
  8
LAYER0
 10
5.244710803314741
 20
30.37656252559086
 30
0.0
  0
VERTEX
  5
19B
  8
LAYER0
 10
5.24471080331474
 20
30.88726387872369
 30
0.0
 42
0.9427760912618857
  0
VERTEX
  5
19C
  8
LAYER0
 10
5.040003753477597
 20
31.09197092856083
 30
0.0
  0
VERTEX
  5
19D
  8
LAYER0
 10
4.909417853151879
 20
31.09197092856083
 30
0.0
 42
0.9427760912619056
  0
VERTEX
  5
19E
  8
LAYER0
 10
4.70471080331474
 20
30.88726387872369
 30
0.0
  0
SEQEND
  5
3A7
  8
LAYER0
  0
POLYLINE
  5
78
  8
LAYER0
 66
     1
 10
0.0
 20
0.0
 30
0.0
 70
     1
  0
VERTEX
  5
19F
  8
LAYER0
 10
3.466932803314736
 20
28.46443998400095
 30
0.0
 42
0.9427760912618628
  0
VERTEX
  5
1A0
  8
LAYER0
 10
3.262225753477596
 20
28.6691470338381
 30
0.0
  0
VERTEX
  5
1A1
  8
LAYER0
 10
3.131639853151871
 20
28.6691470338381
 30
0.0
 42
0.9427760912618804
  0
VERTEX
  5
1A2
  8
LAYER0
 10
2.926932803314734
 20
28.46443998400096
 30
0.0
  0
VERTEX
  5
1A3
  8
LAYER0
 10
2.926932803314734
 20
28.00733110631564
 30
0.0
 42
0.9427760912618735
  0
VERTEX
  5
1A4
  8
LAYER0
 10
3.131639853151873
 20
27.8026240564785
 30
0.0
  0
VERTEX
  5
1A5
  8
LAYER0
 10
3.262225753477595
 20
27.8026240564785
 30
0.0
 42
0.9427760912618467
  0
VERTEX
  5
1A6
  8
LAYER0
 10
3.466932803314733
 20
28.00733110631564
 30
0.0
  0
SEQEND
  5
3A8
  8
LAYER0
  0
POLYLINE
  5
79
  8
LAYER0
 66
     1
 10
0.0
 20
0.0
 30
0.0
 70
     1
  0
VERTEX
  5
1A7
  8
LAYER0
 10
3.159417853151878
 20
26.46769910340117
 30
0.0
 42
0.9427760912619146
  0
VERTEX
  5
1A8
  8
LAYER0
 10
2.954710803314739
 20
26.26299205356403
 30
0.0
  0
VERTEX
  5
1A9
  8
LAYER0
 10
2.954710803314741
 20
26.13240615323831
 30
0.0
 42
0.9427760912618777
  0
VERTEX
  5
1AA
  8
LAYER0
 10
3.159417853151878
 20
25.92769910340117
 30
0.0
  0
VERTEX
  5
1AB
  8
LAYER0
 10
3.790003753477593
 20
25.92769910340117
 30
0.0
 42
0.9427760912618468
  0
VERTEX
  5
1AC
  8
LAYER0
 10
3.994710803314732
 20
26.13240615323831
 30
0.0
  0
VERTEX
  5
1AD
  8
LAYER0
 10
3.994710803314732
 20
26.26299205356403
 30
0.0
 42
0.9427760912618877
  0
VERTEX
  5
1AE
  8
LAYER0
 10
3.790003753477592
 20
26.46769910340117
 30
0.0
  0
SEQEND
  5
3A9
  8
LAYER0
  0
POLYLINE
  5
7A
  8
LAYER0
 66
     1
 10
0.0
 20
0.0
 30
0.0
 70
     1
  0
VERTEX
  5
1AF
  8
LAYER0
 10
5.704710803314729
 20
26.13240615323831
 30
0.0
 42
0.9427760912618596
  0
VERTEX
  5
1B0
  8
LAYER0
 10
5.909417853151871
 20
25.92769910340117
 30
0.0
  0
VERTEX
  5
1B1
  8
LAYER0
 10
6.290003753477594
 20
25.92769910340117
 30
0.0
 42
0.9427760912619058
  0
VERTEX
  5
1B2
  8
LAYER0
 10
6.494710803314733
 20
26.13240615323831
 30
0.0
  0
VERTEX
  5
1B3
  8
LAYER0
 10
6.49471080331473
 20
26.26299205356403
 30
0.0
 42
0.9427760912619014
  0
VERTEX
  5
1B4
  8
LAYER0
 10
6.290003753477592
 20
26.46769910340117
 30
0.0
  0
VERTEX
  5
1B5
  8
LAYER0
 10
5.90941785315187
 20
26.46769910340117
 30
0.0
 42
0.9427760912619141
  0
VERTEX
  5
1B6
  8
LAYER0
 10
5.70471080331473
 20
26.26299205356403
 30
0.0
  0
SEQEND
  5
3AA
  8
LAYER0
  0
POLYLINE
  5
7B
  8
LAYER0
 66
     1
 10
0.0
 20
0.0
 30
0.0
 70
     1
  0
VERTEX
  5
1B7
  8
LAYER0
 10
8.204710803314745
 20
26.13240615323831
 30
0.0
 42
0.9427760912618589
  0
VERTEX
  5
1B8
  8
LAYER0
 10
8.409417853151885
 20
25.92769910340117
 30
0.0
  0
VERTEX
  5
1B9
  8
LAYER0
 10
9.0400037534776
 20
25.92769910340117
 30
0.0
 42
0.9427760912618807
  0
VERTEX
  5
1BA
  8
LAYER0
 10
9.244710803314739
 20
26.13240615323831
 30
0.0
  0
VERTEX
  5
1BB
  8
LAYER0
 10
9.244710803314739
 20
26.26299205356403
 30
0.0
 42
0.9427760912618899
  0
VERTEX
  5
1BC
  8
LAYER0
 10
9.040003753477599
 20
26.46769910340117
 30
0.0
  0
VERTEX
  5
1BD
  8
LAYER0
 10
8.409417853151886
 20
26.46769910340117
 30
0.0
 42
0.9427760912619058
  0
VERTEX
  5
1BE
  8
LAYER0
 10
8.204710803314748
 20
26.26299205356403
 30
0.0
  0
SEQEND
  5
3AB
  8
LAYER0
  0
POLYLINE
  5
7C
  8
LAYER0
 66
     1
 10
0.0
 20
0.0
 30
0.0
 70
     1
  0
VERTEX
  5
1BF
  8
LAYER0
 10
9.067781753477576
 20
27.8026240564785
 30
0.0
 42
0.9427760912618464
  0
VERTEX
  5
1C0
  8
LAYER0
 10
9.272488803314713
 20
28.00733110631564
 30
0.0
  0
VERTEX
  5
1C1
  8
LAYER0
 10
9.272488803314713
 20
28.46443998400096
 30
0.0
 42
0.9427760912618715
  0
VERTEX
  5
1C2
  8
LAYER0
 10
9.067781753477577
 20
28.6691470338381
 30
0.0
  0
VERTEX
  5
1C3
  8
LAYER0
 10
8.937195853151854
 20
28.6691470338381
 30
0.0
 42
0.9427760912618567
  0
VERTEX
  5
1C4
  8
LAYER0
 10
8.732488803314716
 20
28.46443998400096
 30
0.0
  0
VERTEX
  5
1C5
  8
LAYER0
 10
8.732488803314714
 20
28.00733110631564
 30
0.0
 42
0.9427760912618587
  0
VERTEX
  5
1C6
  8
LAYER0
 10
8.937195853151854
 20
27.8026240564785
 30
0.0
  0
SEQEND
  5
3AC
  8
LAYER0
  0
POLYLINE
  5
7D
  8
LAYER0
 66
     1
 10
0.0
 20
0.0
 30
0.0
 70
     1
  0
VERTEX
  5
1C7
  8
LAYER0
 10
9.067781753477577
 20
31.02588310340117
 30
0.0
 42
0.9427760912619075
  0
VERTEX
  5
1C8
  8
LAYER0
 10
9.272488803314719
 20
31.23059015323831
 30
0.0
  0
VERTEX
  5
1C9
  8
LAYER0
 10
9.272488803314713
 20
31.36117605356403
 30
0.0
 42
0.9427760912618715
  0
VERTEX
  5
1CA
  8
LAYER0
 10
9.067781753477577
 20
31.56588310340117
 30
0.0
  0
VERTEX
  5
1CB
  8
LAYER0
 10
8.548306853151848
 20
31.56588310340117
 30
0.0
 42
0.9427760912618557
  0
VERTEX
  5
1CC
  8
LAYER0
 10
8.343599803314708
 20
31.36117605356403
 30
0.0
  0
VERTEX
  5
1CD
  8
LAYER0
 10
8.343599803314707
 20
31.2305901532383
 30
0.0
 42
0.9427760912618598
  0
VERTEX
  5
1CE
  8
LAYER0
 10
8.548306853151848
 20
31.02588310340117
 30
0.0
  0
SEQEND
  5
3AD
  8
LAYER0
  0
POLYLINE
  5
7E
  8
LAYER0
 66
     1
 10
0.0
 20
0.0
 30
0.0
 70
     1
  0
VERTEX
  5
1CF
  8
LAYER0
 10
7.494710803314737
 20
33.30540224306355
 30
0.0
 42
0.9427760912619106
  0
VERTEX
  5
1D0
  8
LAYER0
 10
7.290003753477597
 20
33.51010929290068
 30
0.0
  0
VERTEX
  5
1D1
  8
LAYER0
 10
7.159417853151879
 20
33.51010929290068
 30
0.0
 42
0.942776091261848
  0
VERTEX
  5
1D2
  8
LAYER0
 10
6.954710803314741
 20
33.30540224306355
 30
0.0
  0
VERTEX
  5
1D3
  8
LAYER0
 10
6.954710803314738
 20
32.27169914538501
 30
0.0
 42
0.9427760912618723
  0
VERTEX
  5
1D4
  8
LAYER0
 10
7.159417853151878
 20
32.06699209554787
 30
0.0
  0
VERTEX
  5
1D5
  8
LAYER0
 10
7.290003753477603
 20
32.06699209554787
 30
0.0
 42
0.942776091261906
  0
VERTEX
  5
1D6
  8
LAYER0
 10
7.494710803314739
 20
32.27169914538501
 30
0.0
  0
SEQEND
  5
3AE
  8
LAYER0
  0
POLYLINE
  5
7F
  8
LAYER0
 66
     1
 10
0.0
 20
0.0
 30
0.0
 70
     1
  0
VERTEX
  5
1D7
  8
LAYER0
 10
7.159417853151879
 20
31.09197092856083
 30
0.0
 42
0.9427760912618802
  0
VERTEX
  5
1D8
  8
LAYER0
 10
6.95471080331474
 20
30.88726387872369
 30
0.0
  0
VERTEX
  5
1D9
  8
LAYER0
 10
6.954710803314741
 20
30.37656252559086
 30
0.0
 42
0.942776091261878
  0
VERTEX
  5
1DA
  8
LAYER0
 10
7.159417853151878
 20
30.17185547575373
 30
0.0
  0
VERTEX
  5
1DB
  8
LAYER0
 10
7.290003753477601
 20
30.17185547575373
 30
0.0
 42
0.9427760912618787
  0
VERTEX
  5
1DC
  8
LAYER0
 10
7.494710803314739
 20
30.37656252559086
 30
0.0
  0
VERTEX
  5
1DD
  8
LAYER0
 10
7.494710803314737
 20
30.88726387872369
 30
0.0
 42
0.9427760912618909
  0
VERTEX
  5
1DE
  8
LAYER0
 10
7.290003753477597
 20
31.09197092856083
 30
0.0
  0
SEQEND
  5
3AF
  8
LAYER0
  0
POLYLINE
  5
80
  8
LAYER0
 66
     1
 10
0.0
 20
0.0
 30
0.0
 70
     1
  0
VERTEX
  5
1DF
  8
LAYER0
 10
7.159417853151878
 20
28.31671885595958
 30
0.0
 42
0.9427760912618809
  0
VERTEX
  5
1E0
  8
LAYER0
 10
6.954710803314738
 20
28.11201180612244
 30
0.0
  0
VERTEX
  5
1E1
  8
LAYER0
 10
6.95471080331474
 20
26.63240615323831
 30
0.0
 42
0.9427760912618756
  0
VERTEX
  5
1E2
  8
LAYER0
 10
7.159417853151879
 20
26.42769910340117
 30
0.0
  0
VERTEX
  5
1E3
  8
LAYER0
 10
7.290003753477601
 20
26.42769910340117
 30
0.0
 42
0.942776091261879
  0
VERTEX
  5
1E4
  8
LAYER0
 10
7.494710803314735
 20
26.63240615323831
 30
0.0
  0
VERTEX
  5
1E5
  8
LAYER0
 10
7.494710803314739
 20
28.11201180612244
 30
0.0
 42
0.9427760912618723
  0
VERTEX
  5
1E6
  8
LAYER0
 10
7.290003753477599
 20
28.31671885595958
 30
0.0
  0
SEQEND
  5
3B0
  8
LAYER0
  0
POLYLINE
  5
81
  8
LAYER0
 66
     1
 10
0.0
 20
0.0
 30
0.0
 70
     1
  0
VERTEX
  5
1E7
  8
LAYER0
 10
5.24471080331474
 20
28.11201180612244
 30
0.0
 42
0.9427760912618568
  0
VERTEX
  5
1E8
  8
LAYER0
 10
5.040003753477601
 20
28.31671885595958
 30
0.0
  0
VERTEX
  5
1E9
  8
LAYER0
 10
4.90941785315188
 20
28.31671885595958
 30
0.0
 42
0.9427760912618739
  0
VERTEX
  5
1EA
  8
LAYER0
 10
4.704710803314737
 20
28.11201180612244
 30
0.0
  0
VERTEX
  5
1EB
  8
LAYER0
 10
4.704710803314738
 20
26.63240615323831
 30
0.0
 42
0.94277609126187
  0
VERTEX
  5
1EC
  8
LAYER0
 10
4.909417853151879
 20
26.42769910340117
 30
0.0
  0
VERTEX
  5
1ED
  8
LAYER0
 10
5.040003753477601
 20
26.42769910340117
 30
0.0
 42
0.9427760912618558
  0
VERTEX
  5
1EE
  8
LAYER0
 10
5.244710803314743
 20
26.63240615323831
 30
0.0
  0
SEQEND
  5
3B1
  8
LAYER0
  0
POLYLINE
  5
82
  8
LAYER0
 66
     1
 10
0.0
 20
0.0
 30
0.0
 70
     1
  0
VERTEX
  5
1EF
  8
LAYER0
 10
45.67256681157042
 20
30.95177299999885
 30
0.0
 42
0.4142135623730951
  0
VERTEX
  5
1F0
  8
LAYER0
 10
45.235066811571
 20
30.51427299999944
 30
0.0
 42
0.4142135623730951
  0
VERTEX
  5
1F1
  8
LAYER0
 10
45.67256681157042
 20
30.07677300000002
 30
0.0
 42
0.4142135623730951
  0
VERTEX
  5
1F2
  8
LAYER0
 10
46.11006681156983
 20
30.51427299999944
 30
0.0
 42
0.4142135623730951
  0
SEQEND
  5
3B2
  8
LAYER0
  0
POLYLINE
  5
83
  8
LAYER0
 66
     1
 10
0.0
 20
0.0
 30
0.0
 70
     1
  0
VERTEX
  5
1F3
  8
LAYER0
 10
24.72863693340797
 20
30.61111099999999
 30
0.0
  0
VERTEX
  5
1F4
  8
LAYER0
 10
25.17686023811134
 20
30.61111099999999
 30
0.0
 42
1.0
  0
VERTEX
  5
1F5
  8
LAYER0
 10
25.35363693340797
 20
30.78788769529663
 30
0.0
  0
VERTEX
  5
1F6
  8
LAYER0
 10
25.35363693340797
 20
31.5
 30
0.0
  0
VERTEX
  5
1F7
  8
LAYER0
 10
46.60363693340797
 20
31.5
 30
0.0
  0
VERTEX
  5
1F8
  8
LAYER0
 10
46.60363693340797
 20
30.78788769529663
 30
0.0
 42
1.0
  0
VERTEX
  5
1F9
  8
LAYER0
 10
46.78041362870461
 20
30.61111099999999
 30
0.0
  0
VERTEX
  5
1FA
  8
LAYER0
 10
47.22863693340797
 20
30.61111099999999
 30
0.0
  0
VERTEX
  5
1FB
  8
LAYER0
 10
47.22863693340797
 20
29.72222199999999
 30
0.0
  0
VERTEX
  5
1FC
  8
LAYER0
 10
33.48366473179519
 20
29.72222199999999
 30
0.0
  0
VERTEX
  5
1FD
  8
LAYER0
 10
33.48366473179519
 20
30.12244271202014
 30
0.0
  0
VERTEX
  5
1FE
  8
LAYER0
 10
33.51491473179519
 20
30.1353868858443
 30
0.0
 42
0.7673269878358293
  0
VERTEX
  5
1FF
  8
LAYER0
 10
33.29616473179519
 20
30.95177299941163
 30
0.0
 42
0.7673269878358293
  0
VERTEX
  5
200
  8
LAYER0
 10
33.07741473179519
 20
30.1353868858443
 30
0.0
  0
VERTEX
  5
201
  8
LAYER0
 10
33.10866473179519
 20
30.12244271202014
 30
0.0
  0
VERTEX
  5
202
  8
LAYER0
 10
33.10866473179519
 20
29.72222199999999
 30
0.0
  0
VERTEX
  5
203
  8
LAYER0
 10
32.00220689846185
 20
29.72222199999999
 30
0.0
  0
VERTEX
  5
204
  8
LAYER0
 10
32.00220689846185
 20
30.12244271202014
 30
0.0
  0
VERTEX
  5
205
  8
LAYER0
 10
32.03345689846185
 20
30.1353868858443
 30
0.0
 42
0.7673269877586787
  0
VERTEX
  5
206
  8
LAYER0
 10
31.81470689846185
 20
30.95177299909447
 30
0.0
 42
0.7673269877586785
  0
VERTEX
  5
207
  8
LAYER0
 10
31.59595689846185
 20
30.1353868858443
 30
0.0
  0
VERTEX
  5
208
  8
LAYER0
 10
31.62720689846185
 20
30.12244271202014
 30
0.0
  0
VERTEX
  5
209
  8
LAYER0
 10
31.62720689846185
 20
29.72222199999999
 30
0.0
  0
VERTEX
  5
20A
  8
LAYER0
 10
30.52074906512852
 20
29.72222199999999
 30
0.0
  0
VERTEX
  5
20B
  8
LAYER0
 10
30.52074906512852
 20
30.12244271202014
 30
0.0
  0
VERTEX
  5
20C
  8
LAYER0
 10
30.55199906512852
 20
30.1353868858443
 30
0.0
 42
0.7673269886669148
  0
VERTEX
  5
20D
  8
LAYER0
 10
30.33324906512852
 20
30.95177300282798
 30
0.0
 42
0.7673269886669148
  0
VERTEX
  5
20E
  8
LAYER0
 10
30.11449906512852
 20
30.1353868858443
 30
0.0
  0
VERTEX
  5
20F
  8
LAYER0
 10
30.14574906512852
 20
30.12244271202014
 30
0.0
  0
VERTEX
  5
210
  8
LAYER0
 10
30.14574906512852
 20
29.72222199999999
 30
0.0
  0
VERTEX
  5
211
  8
LAYER0
 10
29.03929123179519
 20
29.72222199999999
 30
0.0
  0
VERTEX
  5
212
  8
LAYER0
 10
29.03929123179519
 20
30.12244271202014
 30
0.0
  0
VERTEX
  5
213
  8
LAYER0
 10
29.07054123179519
 20
30.1353868858443
 30
0.0
 42
0.7673269868684871
  0
VERTEX
  5
214
  8
LAYER0
 10
28.8517912317952
 20
30.95177299543513
 30
0.0
 42
0.7673269868684871
  0
VERTEX
  5
215
  8
LAYER0
 10
28.6330412317952
 20
30.1353868858443
 30
0.0
  0
VERTEX
  5
216
  8
LAYER0
 10
28.6642912317952
 20
30.12244271202014
 30
0.0
  0
VERTEX
  5
217
  8
LAYER0
 10
28.6642912317952
 20
29.72222199999999
 30
0.0
  0
VERTEX
  5
218
  8
LAYER0
 10
27.55783339846186
 20
29.72222199999999
 30
0.0
  0
VERTEX
  5
219
  8
LAYER0
 10
27.55783339846186
 20
30.12244271202014
 30
0.0
  0
VERTEX
  5
21A
  8
LAYER0
 10
27.58908339846186
 20
30.1353868858443
 30
0.0
 42
0.7673269867913289
  0
VERTEX
  5
21B
  8
LAYER0
 10
27.37033339846186
 20
30.95177299511796
 30
0.0
 42
0.7673269867913288
  0
VERTEX
  5
21C
  8
LAYER0
 10
27.15158339846186
 20
30.1353868858443
 30
0.0
  0
VERTEX
  5
21D
  8
LAYER0
 10
27.18283339846186
 20
30.12244271202014
 30
0.0
  0
VERTEX
  5
21E
  8
LAYER0
 10
27.18283339846186
 20
29.72222199999999
 30
0.0
  0
VERTEX
  5
21F
  8
LAYER0
 10
24.72863693340797
 20
29.72222199999999
 30
0.0
  0
SEQEND
  5
3B3
  8
LAYER0
  0
POLYLINE
  5
84
  8
LAYER0
 66
     1
 10
0.0
 20
0.0
 30
0.0
 70
     1
  0
VERTEX
  5
220
  8
LAYER0
 10
44.18955681157139
 20
30.95177299999644
 30
0.0
 42
0.4142135623730951
  0
VERTEX
  5
221
  8
LAYER0
 10
43.75205681157347
 20
30.51427299999852
 30
0.0
 42
0.4142135623730951
  0
VERTEX
  5
222
  8
LAYER0
 10
44.18955681157139
 20
30.07677300000061
 30
0.0
 42
0.4142135623730951
  0
VERTEX
  5
223
  8
LAYER0
 10
44.6270568115693
 20
30.51427299999852
 30
0.0
 42
0.4142135623730951
  0
SEQEND
  5
3B4
  8
LAYER0
  0
POLYLINE
  5
85
  8
LAYER0
 66
     1
 10
0.0
 20
0.0
 30
0.0
 70
     1
  0
VERTEX
  5
224
  8
LAYER0
 10
40.99869809234396
 20
31.16034566263838
 30
0.0
  0
VERTEX
  5
225
  8
LAYER0
 10
38.47181109234396
 20
31.16034566263838
 30
0.0
  0
VERTEX
  5
226
  8
LAYER0
 10
38.47181109234396
 20
30.85889366263839
 30
0.0
  0
VERTEX
  5
227
  8
LAYER0
 10
40.99869809234396
 20
30.85889366263839
 30
0.0
  0
SEQEND
  5
3B5
  8
LAYER0
  0
POLYLINE
  5
86
  8
LAYER0
 66
     1
 10
0.0
 20
0.0
 30
0.0
 70
     1
  0
VERTEX
  5
228
  8
LAYER0
 10
37.02754809234395
 20
30.44315166263839
 30
0.0
  0
VERTEX
  5
229
  8
LAYER0
 10
34.50066109234395
 20
30.44315166263839
 30
0.0
  0
VERTEX
  5
22A
  8
LAYER0
 10
34.50066109234395
 20
30.14169966263839
 30
0.0
  0
VERTEX
  5
22B
  8
LAYER0
 10
37.02754809234395
 20
30.14169966263839
 30
0.0
  0
SEQEND
  5
3B6
  8
LAYER0
  0
POLYLINE
  5
87
  8
LAYER0
 66
     1
 10
0.0
 20
0.0
 30
0.0
 70
     1
  0
VERTEX
  5
22C
  8
LAYER0
 10
37.02754809234395
 20
31.16034566263838
 30
0.0
  0
VERTEX
  5
22D
  8
LAYER0
 10
34.50066109234395
 20
31.16034566263838
 30
0.0
  0
VERTEX
  5
22E
  8
LAYER0
 10
34.50066109234395
 20
30.85889366263839
 30
0.0
  0
VERTEX
  5
22F
  8
LAYER0
 10
37.02754809234395
 20
30.85889366263839
 30
0.0
  0
SEQEND
  5
3B7
  8
LAYER0
  0
POLYLINE
  5
88
  8
LAYER0
 66
     1
 10
0.0
 20
0.0
 30
0.0
 70
     1
  0
VERTEX
  5
230
  8
LAYER0
 10
40.99869809234396
 20
30.44315166263839
 30
0.0
  0
VERTEX
  5
231
  8
LAYER0
 10
38.47181109234396
 20
30.44315166263839
 30
0.0
  0
VERTEX
  5
232
  8
LAYER0
 10
38.47181109234396
 20
30.14169966263839
 30
0.0
  0
VERTEX
  5
233
  8
LAYER0
 10
40.99869809234396
 20
30.14169966263839
 30
0.0
  0
SEQEND
  5
3B8
  8
LAYER0
  0
POLYLINE
  5
89
  8
LAYER0
 66
     1
 10
0.0
 20
0.0
 30
0.0
 70
     1
  0
VERTEX
  5
234
  8
LAYER0
 10
42.70654681157119
 20
30.95177299999711
 30
0.0
 42
0.4142135623730951
  0
VERTEX
  5
235
  8
LAYER0
 10
42.26904681157262
 20
30.51427299999855
 30
0.0
 42
0.4142135623730951
  0
VERTEX
  5
236
  8
LAYER0
 10
42.70654681157119
 20
30.07677299999999
 30
0.0
 42
0.4142135623730951
  0
VERTEX
  5
237
  8
LAYER0
 10
43.14404681156975
 20
30.51427299999855
 30
0.0
 42
0.4142135623730951
  0
SEQEND
  5
3B9
  8
LAYER0
  0
POLYLINE
  5
8A
  8
LAYER0
 66
     1
 10
0.0
 20
0.0
 30
0.0
 70
     1
  0
VERTEX
  5
238
  8
LAYER0
 10
44.1303661459611
 20
27.07677299999973
 30
0.0
 42
0.4142135623730951
  0
VERTEX
  5
239
  8
LAYER0
 10
43.69286614596256
 20
26.63927300000118
 30
0.0
 42
0.4142135623730951
  0
VERTEX
  5
23A
  8
LAYER0
 10
44.1303661459611
 20
26.20177300000263
 30
0.0
 42
0.4142135623730951
  0
VERTEX
  5
23B
  8
LAYER0
 10
44.56786614595966
 20
26.63927300000118
 30
0.0
 42
0.4142135623730951
  0
SEQEND
  5
3BA
  8
LAYER0
  0
POLYLINE
  5
8B
  8
LAYER0
 66
     1
 10
0.0
 20
0.0
 30
0.0
 70
     1
  0
VERTEX
  5
23C
  8
LAYER0
 10
42.64735614595918
 20
27.0767729999993
 30
0.0
 42
0.4142135623730951
  0
VERTEX
  5
23D
  8
LAYER0
 10
42.20985614595931
 20
26.63927299999942
 30
0.0
 42
0.4142135623730951
  0
VERTEX
  5
23E
  8
LAYER0
 10
42.64735614595918
 20
26.20177299999955
 30
0.0
 42
0.4142135623730951
  0
VERTEX
  5
23F
  8
LAYER0
 10
43.08485614595905
 20
26.63927299999942
 30
0.0
 42
0.4142135623730951
  0
SEQEND
  5
3BB
  8
LAYER0
  0
POLYLINE
  5
8C
  8
LAYER0
 66
     1
 10
0.0
 20
0.0
 30
0.0
 70
     1
  0
VERTEX
  5
240
  8
LAYER0
 10
24.6694462677978
 20
26.73611099999999
 30
0.0
  0
VERTEX
  5
241
  8
LAYER0
 10
25.11766957250116
 20
26.73611099999999
 30
0.0
 42
1.0
  0
VERTEX
  5
242
  8
LAYER0
 10
25.2944462677978
 20
26.91288769529663
 30
0.0
  0
VERTEX
  5
243
  8
LAYER0
 10
25.2944462677978
 20
27.625
 30
0.0
  0
VERTEX
  5
244
  8
LAYER0
 10
46.5444462677978
 20
27.625
 30
0.0
  0
VERTEX
  5
245
  8
LAYER0
 10
46.5444462677978
 20
26.91288769529663
 30
0.0
 42
1.0
  0
VERTEX
  5
246
  8
LAYER0
 10
46.72122296309443
 20
26.73611099999999
 30
0.0
  0
VERTEX
  5
247
  8
LAYER0
 10
47.1694462677978
 20
26.73611099999999
 30
0.0
  0
VERTEX
  5
248
  8
LAYER0
 10
47.1694462677978
 20
25.84722199999999
 30
0.0
  0
VERTEX
  5
249
  8
LAYER0
 10
33.42447406618501
 20
25.84722199999999
 30
0.0
  0
VERTEX
  5
24A
  8
LAYER0
 10
33.42447406618501
 20
26.24744271202014
 30
0.0
  0
VERTEX
  5
24B
  8
LAYER0
 10
33.45572406618501
 20
26.2603868858443
 30
0.0
 42
0.7673269879387575
  0
VERTEX
  5
24C
  8
LAYER0
 10
33.23697406618501
 20
27.07677299983474
 30
0.0
 42
0.7673269879387575
  0
VERTEX
  5
24D
  8
LAYER0
 10
33.01822406618501
 20
26.2603868858443
 30
0.0
  0
VERTEX
  5
24E
  8
LAYER0
 10
33.04947406618501
 20
26.24744271202014
 30
0.0
  0
VERTEX
  5
24F
  8
LAYER0
 10
33.04947406618501
 20
25.84722199999999
 30
0.0
  0
VERTEX
  5
250
  8
LAYER0
 10
31.94301623285168
 20
25.84722199999999
 30
0.0
  0
VERTEX
  5
251
  8
LAYER0
 10
31.94301623285168
 20
26.24744271202014
 30
0.0
  0
VERTEX
  5
252
  8
LAYER0
 10
31.97426623285168
 20
26.2603868858443
 30
0.0
 42
0.7673269872878509
  0
VERTEX
  5
253
  8
LAYER0
 10
31.75551623285168
 20
27.07677299715902
 30
0.0
 42
0.7673269872878509
  0
VERTEX
  5
254
  8
LAYER0
 10
31.53676623285168
 20
26.2603868858443
 30
0.0
  0
VERTEX
  5
255
  8
LAYER0
 10
31.56801623285168
 20
26.24744271202014
 30
0.0
  0
VERTEX
  5
256
  8
LAYER0
 10
31.56801623285168
 20
25.84722199999999
 30
0.0
  0
VERTEX
  5
257
  8
LAYER0
 10
30.46155839951835
 20
25.84722199999999
 30
0.0
  0
VERTEX
  5
258
  8
LAYER0
 10
30.46155839951835
 20
26.24744271202014
 30
0.0
  0
VERTEX
  5
259
  8
LAYER0
 10
30.49280839951835
 20
26.2603868858443
 30
0.0
 42
0.7673269887698391
  0
VERTEX
  5
25A
  8
LAYER0
 10
30.27405839951835
 20
27.07677300325109
 30
0.0
 42
0.7673269887698391
  0
VERTEX
  5
25B
  8
LAYER0
 10
30.05530839951835
 20
26.2603868858443
 30
0.0
  0
VERTEX
  5
25C
  8
LAYER0
 10
30.08655839951835
 20
26.24744271202014
 30
0.0
  0
VERTEX
  5
25D
  8
LAYER0
 10
30.08655839951835
 20
25.84722199999999
 30
0.0
  0
VERTEX
  5
25E
  8
LAYER0
 10
28.98010056618502
 20
25.84722199999999
 30
0.0
  0
VERTEX
  5
25F
  8
LAYER0
 10
28.98010056618502
 20
26.24744271202014
 30
0.0
  0
VERTEX
  5
260
  8
LAYER0
 10
29.01135056618502
 20
26.2603868858443
 30
0.0
 42
0.7673269869714135
  0
VERTEX
  5
261
  8
LAYER0
 10
28.79260056618502
 20
27.07677299585825
 30
0.0
 42
0.7673269869714135
  0
VERTEX
  5
262
  8
LAYER0
 10
28.57385056618502
 20
26.2603868858443
 30
0.0
  0
VERTEX
  5
263
  8
LAYER0
 10
28.60510056618502
 20
26.24744271202014
 30
0.0
  0
VERTEX
  5
264
  8
LAYER0
 10
28.60510056618502
 20
25.84722199999999
 30
0.0
  0
VERTEX
  5
265
  8
LAYER0
 10
27.49864273285169
 20
25.84722199999999
 30
0.0
  0
VERTEX
  5
266
  8
LAYER0
 10
27.49864273285169
 20
26.24744271202014
 30
0.0
  0
VERTEX
  5
267
  8
LAYER0
 10
27.52989273285169
 20
26.2603868858443
 30
0.0
 42
0.7673269868942609
  0
VERTEX
  5
268
  8
LAYER0
 10
27.31114273285169
 20
27.07677299554108
 30
0.0
 42
0.7673269868942609
  0
VERTEX
  5
269
  8
LAYER0
 10
27.09239273285169
 20
26.2603868858443
 30
0.0
  0
VERTEX
  5
26A
  8
LAYER0
 10
27.12364273285169
 20
26.24744271202014
 30
0.0
  0
VERTEX
  5
26B
  8
LAYER0
 10
27.12364273285169
 20
25.84722199999999
 30
0.0
  0
VERTEX
  5
26C
  8
LAYER0
 10
24.6694462677978
 20
25.84722199999999
 30
0.0
  0
SEQEND
  5
3BC
  8
LAYER0
  0
POLYLINE
  5
8D
  8
LAYER0
 66
     1
 10
0.0
 20
0.0
 30
0.0
 70
     1
  0
VERTEX
  5
26D
  8
LAYER0
 10
40.93950742673378
 20
27.28534566263839
 30
0.0
  0
VERTEX
  5
26E
  8
LAYER0
 10
38.41262042673378
 20
27.28534566263839
 30
0.0
  0
VERTEX
  5
26F
  8
LAYER0
 10
38.41262042673378
 20
26.98389366263839
 30
0.0
  0
VERTEX
  5
270
  8
LAYER0
 10
40.93950742673378
 20
26.98389366263839
 30
0.0
  0
SEQEND
  5
3BD
  8
LAYER0
  0
POLYLINE
  5
8E
  8
LAYER0
 66
     1
 10
0.0
 20
0.0
 30
0.0
 70
     1
  0
VERTEX
  5
271
  8
LAYER0
 10
45.61337614595945
 20
27.07677299999954
 30
0.0
 42
0.4142135623730951
  0
VERTEX
  5
272
  8
LAYER0
 10
45.17587614595969
 20
26.63927299999979
 30
0.0
 42
0.4142135623730951
  0
VERTEX
  5
273
  8
LAYER0
 10
45.61337614595945
 20
26.20177300000004
 30
0.0
 42
0.4142135623730951
  0
VERTEX
  5
274
  8
LAYER0
 10
46.05087614595919
 20
26.63927299999979
 30
0.0
 42
0.4142135623730951
  0
SEQEND
  5
3BE
  8
LAYER0
  0
POLYLINE
  5
8F
  8
LAYER0
 66
     1
 10
0.0
 20
0.0
 30
0.0
 70
     1
  0
VERTEX
  5
275
  8
LAYER0
 10
36.96835742673378
 20
26.56815166263839
 30
0.0
  0
VERTEX
  5
276
  8
LAYER0
 10
34.44147042673379
 20
26.56815166263839
 30
0.0
  0
VERTEX
  5
277
  8
LAYER0
 10
34.44147042673379
 20
26.26669966263839
 30
0.0
  0
VERTEX
  5
278
  8
LAYER0
 10
36.96835742673378
 20
26.26669966263839
 30
0.0
  0
SEQEND
  5
3BF
  8
LAYER0
  0
POLYLINE
  5
90
  8
LAYER0
 66
     1
 10
0.0
 20
0.0
 30
0.0
 70
     1
  0
VERTEX
  5
279
  8
LAYER0
 10
36.96835742673378
 20
27.28534566263839
 30
0.0
  0
VERTEX
  5
27A
  8
LAYER0
 10
34.44147042673379
 20
27.28534566263839
 30
0.0
  0
VERTEX
  5
27B
  8
LAYER0
 10
34.44147042673379
 20
26.98389366263839
 30
0.0
  0
VERTEX
  5
27C
  8
LAYER0
 10
36.96835742673378
 20
26.98389366263839
 30
0.0
  0
SEQEND
  5
3C0
  8
LAYER0
  0
POLYLINE
  5
91
  8
LAYER0
 66
     1
 10
0.0
 20
0.0
 30
0.0
 70
     1
  0
VERTEX
  5
27D
  8
LAYER0
 10
40.93950742673378
 20
26.56815166263839
 30
0.0
  0
VERTEX
  5
27E
  8
LAYER0
 10
38.41262042673378
 20
26.56815166263839
 30
0.0
  0
VERTEX
  5
27F
  8
LAYER0
 10
38.41262042673378
 20
26.26669966263839
 30
0.0
  0
VERTEX
  5
280
  8
LAYER0
 10
40.93950742673378
 20
26.26669966263839
 30
0.0
  0
SEQEND
  5
3C1
  8
LAYER0
  0
POLYLINE
  5
92
  8
LAYER0
 66
     1
 10
0.0
 20
0.0
 30
0.0
 70
     1
  0
VERTEX
  5
281
  8
LAYER0
 10
18.98918558271095
 20
33.98447546968051
 30
0.0
  0
VERTEX
  5
282
  8
LAYER0
 10
18.98918558271095
 20
37.28215346968051
 30
0.0
  0
VERTEX
  5
283
  8
LAYER0
 10
17.98918558271095
 20
37.28215346968051
 30
0.0
  0
VERTEX
  5
284
  8
LAYER0
 10
17.98918558271095
 20
33.98447546968051
 30
0.0
  0
SEQEND
  5
3C2
  8
LAYER0
  0
POLYLINE
  5
93
  8
LAYER0
 66
     1
 10
0.0
 20
0.0
 30
0.0
 70
     1
  0
VERTEX
  5
285
  8
LAYER0
 10
17.65585224937762
 20
39.14052986982362
 30
0.0
  0
VERTEX
  5
286
  8
LAYER0
 10
13.48918558271095
 20
31.95302986982362
 30
0.0
  0
VERTEX
  5
287
  8
LAYER0
 10
13.54847189701836
 20
31.62695514113288
 30
0.0
 42
-1.0
  0
VERTEX
  5
288
  8
LAYER0
 10
13.40616940231079
 20
31.42140709322194
 30
0.0
  0
VERTEX
  5
289
  8
LAYER0
 10
12.96517597980761
 20
31.34122647094863
 30
0.0
  0
VERTEX
  5
28A
  8
LAYER0
 10
13.10153961617124
 20
30.59122647094864
 30
0.0
  0
VERTEX
  5
28B
  8
LAYER0
 10
13.54253303867442
 20
30.67140709322194
 30
0.0
 42
-1.0
  0
VERTEX
  5
28C
  8
LAYER0
 10
13.74808108658537
 20
30.52910459851436
 30
0.0
  0
VERTEX
  5
28D
  8
LAYER0
 10
13.82119916974563
 20
30.12695514113288
 30
0.0
 42
-1.0
  0
VERTEX
  5
28E
  8
LAYER0
 10
13.67889667503806
 20
29.92140709322194
 30
0.0
  0
VERTEX
  5
28F
  8
LAYER0
 10
13.23790325253488
 20
29.84122647094864
 30
0.0
  0
VERTEX
  5
290
  8
LAYER0
 10
13.51063052526215
 20
28.34122647094864
 30
0.0
  0
VERTEX
  5
291
  8
LAYER0
 10
13.95162394776534
 20
28.42140709322194
 30
0.0
 42
-1.0
  0
VERTEX
  5
292
  8
LAYER0
 10
14.15717199567626
 20
28.27910459851436
 30
0.0
  0
VERTEX
  5
293
  8
LAYER0
 10
14.23029007883654
 20
27.87695514113288
 30
0.0
 42
-1.0
  0
VERTEX
  5
294
  8
LAYER0
 10
14.08798758412896
 20
27.67140709322194
 30
0.0
  0
VERTEX
  5
295
  8
LAYER0
 10
13.64699416162579
 20
27.59122647094864
 30
0.0
  0
VERTEX
  5
296
  8
LAYER0
 10
13.78335779798943
 20
26.84122647094864
 30
0.0
  0
VERTEX
  5
297
  8
LAYER0
 10
14.22435122049261
 20
26.92140709322194
 30
0.0
 42
-1.0
  0
VERTEX
  5
298
  8
LAYER0
 10
14.42989926840355
 20
26.77910459851436
 30
0.0
  0
VERTEX
  5
299
  8
LAYER0
 10
14.53085224937762
 20
26.22386320315695
 30
0.0
  0
VERTEX
  5
29A
  8
LAYER0
 10
14.53085224937762
 20
25.02594653649029
 30
0.0
  0
VERTEX
  5
29B
  8
LAYER0
 10
15.67668558271095
 20
25.02594653649029
 30
0.0
  0
VERTEX
  5
29C
  8
LAYER0
 10
15.67668558271095
 20
25.18219653649029
 30
0.0
 42
-0.1296296296139853
  0
VERTEX
  5
29D
  8
LAYER0
 10
21.30168558271095
 20
25.18219653649029
 30
0.0
  0
VERTEX
  5
29E
  8
LAYER0
 10
21.30168558271095
 20
25.02594653649029
 30
0.0
  0
VERTEX
  5
29F
  8
LAYER0
 10
22.44751891604429
 20
25.02594653649029
 30
0.0
  0
VERTEX
  5
2A0
  8
LAYER0
 10
22.44751891604429
 20
26.22386320315695
 30
0.0
  0
VERTEX
  5
2A1
  8
LAYER0
 10
22.54847189701836
 20
26.77910459851436
 30
0.0
 42
-1.0
  0
VERTEX
  5
2A2
  8
LAYER0
 10
22.75401994492931
 20
26.92140709322194
 30
0.0
  0
VERTEX
  5
2A3
  8
LAYER0
 10
23.19501336743249
 20
26.84122647094864
 30
0.0
  0
VERTEX
  5
2A4
  8
LAYER0
 10
23.33137700379612
 20
27.59122647094864
 30
0.0
  0
VERTEX
  5
2A5
  8
LAYER0
 10
22.89038358129295
 20
27.67140709322194
 30
0.0
 42
-1.0
  0
VERTEX
  5
2A6
  8
LAYER0
 10
22.74808108658537
 20
27.87695514113288
 30
0.0
  0
VERTEX
  5
2A7
  8
LAYER0
 10
22.82119916974563
 20
28.27910459851436
 30
0.0
 42
-1.0
  0
VERTEX
  5
2A8
  8
LAYER0
 10
23.02674721765658
 20
28.42140709322194
 30
0.0
  0
VERTEX
  5
2A9
  8
LAYER0
 10
23.46774064015976
 20
28.34122647094864
 30
0.0
  0
VERTEX
  5
2AA
  8
LAYER0
 10
23.74046791288703
 20
29.84122647094864
 30
0.0
  0
VERTEX
  5
2AB
  8
LAYER0
 10
23.29947449038385
 20
29.92140709322194
 30
0.0
 42
-1.0
  0
VERTEX
  5
2AC
  8
LAYER0
 10
23.15717199567626
 20
30.12695514113288
 30
0.0
  0
VERTEX
  5
2AD
  8
LAYER0
 10
23.23029007883654
 20
30.52910459851436
 30
0.0
 42
-1.0
  0
VERTEX
  5
2AE
  8
LAYER0
 10
23.43583812674749
 20
30.67140709322194
 30
0.0
  0
VERTEX
  5
2AF
  8
LAYER0
 10
23.87683154925067
 20
30.59122647094864
 30
0.0
  0
VERTEX
  5
2B0
  8
LAYER0
 10
24.01319518561431
 20
31.34122647094864
 30
0.0
  0
VERTEX
  5
2B1
  8
LAYER0
 10
23.57220176311113
 20
31.42140709322194
 30
0.0
 42
-1.0
  0
VERTEX
  5
2B2
  8
LAYER0
 10
23.42989926840355
 20
31.62695514113288
 30
0.0
  0
VERTEX
  5
2B3
  8
LAYER0
 10
23.48918558271095
 20
31.95302986982362
 30
0.0
  0
VERTEX
  5
2B4
  8
LAYER0
 10
19.32251891604429
 20
39.14052986982362
 30
0.0
  0
VERTEX
  5
2B5
  8
LAYER0
 10
19.32251891604429
 20
40.54677986982362
 30
0.0
 42
0.2119995746949578
  0
VERTEX
  5
2B6
  8
LAYER0
 10
18.48918558271095
 20
41.06761320315696
 30
0.0
 42
0.2119995757920455
  0
VERTEX
  5
2B7
  8
LAYER0
 10
17.65585224937762
 20
40.54677986982362
 30
0.0
  0
SEQEND
  5
3C3
  8
LAYER0
  0
POLYLINE
  5
94
  8
LAYER0
 66
     1
 10
0.0
 20
0.0
 30
0.0
 70
     1
  0
VERTEX
  5
2B8
  8
LAYER0
 10
15.34418558271094
 20
26.40857025299409
 30
0.0
 42
0.9427760912618551
  0
VERTEX
  5
2B9
  8
LAYER0
 10
15.5488926325481
 20
26.20386320315695
 30
0.0
  0
VERTEX
  5
2BA
  8
LAYER0
 10
16.1794785328738
 20
26.20386320315695
 30
0.0
 42
0.9427760912618798
  0
VERTEX
  5
2BB
  8
LAYER0
 10
16.38418558271094
 20
26.40857025299409
 30
0.0
  0
VERTEX
  5
2BC
  8
LAYER0
 10
16.38418558271094
 20
26.53915615331982
 30
0.0
 42
0.9427760912619123
  0
VERTEX
  5
2BD
  8
LAYER0
 10
16.1794785328738
 20
26.74386320315695
 30
0.0
  0
VERTEX
  5
2BE
  8
LAYER0
 10
15.5488926325481
 20
26.74386320315695
 30
0.0
 42
0.9427760912618858
  0
VERTEX
  5
2BF
  8
LAYER0
 10
15.34418558271094
 20
26.53915615331982
 30
0.0
  0
SEQEND
  5
3C4
  8
LAYER0
  0
POLYLINE
  5
95
  8
LAYER0
 66
     1
 10
0.0
 20
0.0
 30
0.0
 70
     1
  0
VERTEX
  5
2C0
  8
LAYER0
 10
18.09418558271095
 20
26.40857025299409
 30
0.0
 42
0.9427760912619062
  0
VERTEX
  5
2C1
  8
LAYER0
 10
18.2988926325481
 20
26.20386320315695
 30
0.0
  0
VERTEX
  5
2C2
  8
LAYER0
 10
18.67947853287381
 20
26.20386320315695
 30
0.0
 42
0.9427760912618898
  0
VERTEX
  5
2C3
  8
LAYER0
 10
18.88418558271095
 20
26.40857025299409
 30
0.0
  0
VERTEX
  5
2C4
  8
LAYER0
 10
18.88418558271094
 20
26.53915615331982
 30
0.0
 42
0.9427760912618685
  0
VERTEX
  5
2C5
  8
LAYER0
 10
18.67947853287381
 20
26.74386320315694
 30
0.0
  0
VERTEX
  5
2C6
  8
LAYER0
 10
18.2988926325481
 20
26.74386320315695
 30
0.0
 42
0.9427760912618601
  0
VERTEX
  5
2C7
  8
LAYER0
 10
18.09418558271094
 20
26.53915615331982
 30
0.0
  0
SEQEND
  5
3C5
  8
LAYER0
  0
POLYLINE
  5
96
  8
LAYER0
 66
     1
 10
0.0
 20
0.0
 30
0.0
 70
     1
  0
VERTEX
  5
2C8
  8
LAYER0
 10
20.59418558271096
 20
26.40857025299409
 30
0.0
 42
0.9427760912618458
  0
VERTEX
  5
2C9
  8
LAYER0
 10
20.7988926325481
 20
26.20386320315695
 30
0.0
  0
VERTEX
  5
2CA
  8
LAYER0
 10
21.42947853287382
 20
26.20386320315695
 30
0.0
 42
0.9427760912618881
  0
VERTEX
  5
2CB
  8
LAYER0
 10
21.63418558271095
 20
26.40857025299409
 30
0.0
  0
VERTEX
  5
2CC
  8
LAYER0
 10
21.63418558271095
 20
26.53915615331982
 30
0.0
 42
0.942776091261896
  0
VERTEX
  5
2CD
  8
LAYER0
 10
21.42947853287382
 20
26.74386320315695
 30
0.0
  0
VERTEX
  5
2CE
  8
LAYER0
 10
20.7988926325481
 20
26.74386320315694
 30
0.0
 42
0.9427760912619154
  0
VERTEX
  5
2CF
  8
LAYER0
 10
20.59418558271096
 20
26.53915615331981
 30
0.0
  0
SEQEND
  5
3C6
  8
LAYER0
  0
POLYLINE
  5
97
  8
LAYER0
 66
     1
 10
0.0
 20
0.0
 30
0.0
 70
     1
  0
VERTEX
  5
2D0
  8
LAYER0
 10
21.45725653287379
 20
28.07878815623429
 30
0.0
 42
0.9427760912618736
  0
VERTEX
  5
2D1
  8
LAYER0
 10
21.66196358271093
 20
28.28349520607143
 30
0.0
  0
VERTEX
  5
2D2
  8
LAYER0
 10
21.66196358271093
 20
28.74060408375674
 30
0.0
 42
0.9427760912618458
  0
VERTEX
  5
2D3
  8
LAYER0
 10
21.45725653287379
 20
28.94531113359388
 30
0.0
  0
VERTEX
  5
2D4
  8
LAYER0
 10
21.32667063254807
 20
28.94531113359388
 30
0.0
 42
0.9427760912619152
  0
VERTEX
  5
2D5
  8
LAYER0
 10
21.12196358271093
 20
28.74060408375674
 30
0.0
  0
VERTEX
  5
2D6
  8
LAYER0
 10
21.12196358271093
 20
28.28349520607143
 30
0.0
 42
0.9427760912618367
  0
VERTEX
  5
2D7
  8
LAYER0
 10
21.32667063254807
 20
28.07878815623429
 30
0.0
  0
SEQEND
  5
3C7
  8
LAYER0
  0
POLYLINE
  5
98
  8
LAYER0
 66
     1
 10
0.0
 20
0.0
 30
0.0
 70
     1
  0
VERTEX
  5
2D8
  8
LAYER0
 10
21.45725653287379
 20
31.30204720315695
 30
0.0
 42
0.9427760912618798
  0
VERTEX
  5
2D9
  8
LAYER0
 10
21.66196358271092
 20
31.50675425299409
 30
0.0
  0
VERTEX
  5
2DA
  8
LAYER0
 10
21.66196358271093
 20
31.6373401533198
 30
0.0
 42
0.9427760912618377
  0
VERTEX
  5
2DB
  8
LAYER0
 10
21.45725653287379
 20
31.84204720315694
 30
0.0
  0
VERTEX
  5
2DC
  8
LAYER0
 10
20.93778163254806
 20
31.84204720315694
 30
0.0
 42
0.9427760912619335
  0
VERTEX
  5
2DD
  8
LAYER0
 10
20.73307458271091
 20
31.6373401533198
 30
0.0
  0
VERTEX
  5
2DE
  8
LAYER0
 10
20.73307458271092
 20
31.50675425299409
 30
0.0
 42
0.9427760912619304
  0
VERTEX
  5
2DF
  8
LAYER0
 10
20.93778163254807
 20
31.30204720315695
 30
0.0
  0
SEQEND
  5
3C8
  8
LAYER0
  0
POLYLINE
  5
99
  8
LAYER0
 66
     1
 10
0.0
 20
0.0
 30
0.0
 70
     1
  0
VERTEX
  5
2E0
  8
LAYER0
 10
19.88418558271094
 20
32.5478632451408
 30
0.0
  0
VERTEX
  5
2E1
  8
LAYER0
 10
19.88418558271094
 20
33.58156634281933
 30
0.0
 42
0.9427760912619135
  0
VERTEX
  5
2E2
  8
LAYER0
 10
19.67947853287382
 20
33.78627339265646
 30
0.0
  0
VERTEX
  5
2E3
  8
LAYER0
 10
19.5488926325481
 20
33.78627339265647
 30
0.0
 42
0.9427760912618662
  0
VERTEX
  5
2E4
  8
LAYER0
 10
19.34418558271095
 20
33.58156634281933
 30
0.0
  0
VERTEX
  5
2E5
  8
LAYER0
 10
19.34418558271095
 20
32.54786324514079
 30
0.0
 42
0.9427760912619008
  0
VERTEX
  5
2E6
  8
LAYER0
 10
19.5488926325481
 20
32.34315619530364
 30
0.0
  0
VERTEX
  5
2E7
  8
LAYER0
 10
19.67947853287382
 20
32.34315619530364
 30
0.0
 42
0.9427760912618499
  0
SEQEND
  5
3C9
  8
LAYER0
  0
POLYLINE
  5
9A
  8
LAYER0
 66
     1
 10
0.0
 20
0.0
 30
0.0
 70
     1
  0
VERTEX
  5
2E8
  8
LAYER0
 10
18.55447853287382
 20
38.5724054696805
 30
0.0
 42
0.9427760912619131
  0
VERTEX
  5
2E9
  8
LAYER0
 10
18.75918558271095
 20
38.77711251951765
 30
0.0
  0
VERTEX
  5
2EA
  8
LAYER0
 10
18.75918558271095
 20
40.40769841984336
 30
0.0
 42
0.9427760912619173
  0
VERTEX
  5
2EB
  8
LAYER0
 10
18.55447853287382
 20
40.61240546968051
 30
0.0
  0
VERTEX
  5
2EC
  8
LAYER0
 10
18.42389263254809
 20
40.6124054696805
 30
0.0
 42
0.9427760912619008
  0
VERTEX
  5
2ED
  8
LAYER0
 10
18.21918558271094
 20
40.40769841984336
 30
0.0
  0
VERTEX
  5
2EE
  8
LAYER0
 10
18.21918558271094
 20
38.77711251951765
 30
0.0
 42
0.9427760912617946
  0
VERTEX
  5
2EF
  8
LAYER0
 10
18.42389263254809
 20
38.57240546968051
 30
0.0
  0
SEQEND
  5
3CA
  8
LAYER0
  0
POLYLINE
  5
9B
  8
LAYER0
 66
     1
 10
0.0
 20
0.0
 30
0.0
 70
     1
  0
VERTEX
  5
2F0
  8
LAYER0
 10
17.29889263254809
 20
33.78627339265646
 30
0.0
 42
0.9427760912618991
  0
VERTEX
  5
2F1
  8
LAYER0
 10
17.09418558271095
 20
33.58156634281933
 30
0.0
  0
VERTEX
  5
2F2
  8
LAYER0
 10
17.09418558271095
 20
32.54786324514079
 30
0.0
 42
0.9427760912618398
  0
VERTEX
  5
2F3
  8
LAYER0
 10
17.29889263254809
 20
32.34315619530365
 30
0.0
  0
VERTEX
  5
2F4
  8
LAYER0
 10
17.42947853287382
 20
32.34315619530364
 30
0.0
 42
0.9427760912618356
  0
VERTEX
  5
2F5
  8
LAYER0
 10
17.63418558271095
 20
32.5478632451408
 30
0.0
  0
VERTEX
  5
2F6
  8
LAYER0
 10
17.63418558271095
 20
33.58156634281932
 30
0.0
 42
0.9427760912618461
  0
VERTEX
  5
2F7
  8
LAYER0
 10
17.42947853287382
 20
33.78627339265646
 30
0.0
  0
SEQEND
  5
3CB
  8
LAYER0
  0
POLYLINE
  5
9C
  8
LAYER0
 66
     1
 10
0.0
 20
0.0
 30
0.0
 70
     1
  0
VERTEX
  5
2F8
  8
LAYER0
 10
15.52111463254809
 20
31.84204720315695
 30
0.0
 42
0.9427760912618652
  0
VERTEX
  5
2F9
  8
LAYER0
 10
15.31640758271094
 20
31.6373401533198
 30
0.0
  0
VERTEX
  5
2FA
  8
LAYER0
 10
15.31640758271095
 20
31.50675425299409
 30
0.0
 42
0.9427760912619143
  0
VERTEX
  5
2FB
  8
LAYER0
 10
15.52111463254809
 20
31.30204720315695
 30
0.0
  0
VERTEX
  5
2FC
  8
LAYER0
 10
16.04058953287381
 20
31.30204720315695
 30
0.0
 42
0.9427760912619091
  0
VERTEX
  5
2FD
  8
LAYER0
 10
16.24529658271096
 20
31.50675425299409
 30
0.0
  0
VERTEX
  5
2FE
  8
LAYER0
 10
16.24529658271096
 20
31.6373401533198
 30
0.0
 42
0.9427760912618888
  0
VERTEX
  5
2FF
  8
LAYER0
 10
16.04058953287382
 20
31.84204720315694
 30
0.0
  0
SEQEND
  5
3CC
  8
LAYER0
  0
POLYLINE
  5
9D
  8
LAYER0
 66
     1
 10
0.0
 20
0.0
 30
0.0
 70
     1
  0
VERTEX
  5
300
  8
LAYER0
 10
15.52111463254809
 20
28.94531113359388
 30
0.0
 42
0.9427760912618652
  0
VERTEX
  5
301
  8
LAYER0
 10
15.31640758271094
 20
28.74060408375674
 30
0.0
  0
VERTEX
  5
302
  8
LAYER0
 10
15.31640758271094
 20
28.28349520607143
 30
0.0
 42
0.9427760912618631
  0
VERTEX
  5
303
  8
LAYER0
 10
15.52111463254809
 20
28.07878815623429
 30
0.0
  0
VERTEX
  5
304
  8
LAYER0
 10
15.65170053287381
 20
28.07878815623429
 30
0.0
 42
0.9427760912619152
  0
VERTEX
  5
305
  8
LAYER0
 10
15.85640758271095
 20
28.28349520607143
 30
0.0
  0
VERTEX
  5
306
  8
LAYER0
 10
15.85640758271095
 20
28.74060408375674
 30
0.0
 42
0.9427760912618458
  0
VERTEX
  5
307
  8
LAYER0
 10
15.65170053287381
 20
28.94531113359388
 30
0.0
  0
SEQEND
  5
3CD
  8
LAYER0
  0
POLYLINE
  5
9E
  8
LAYER0
 66
     1
 10
0.0
 20
0.0
 30
0.0
 70
     1
  0
VERTEX
  5
308
  8
LAYER0
 10
17.09418558271094
 20
28.38817590587823
 30
0.0
  0
VERTEX
  5
309
  8
LAYER0
 10
17.09418558271094
 20
26.90857025299409
 30
0.0
 42
0.9427760912618551
  0
VERTEX
  5
30A
  8
LAYER0
 10
17.2988926325481
 20
26.70386320315695
 30
0.0
  0
VERTEX
  5
30B
  8
LAYER0
 10
17.42947853287382
 20
26.70386320315695
 30
0.0
 42
0.9427760912619042
  0
VERTEX
  5
30C
  8
LAYER0
 10
17.63418558271095
 20
26.90857025299409
 30
0.0
  0
VERTEX
  5
30D
  8
LAYER0
 10
17.63418558271095
 20
28.38817590587822
 30
0.0
 42
0.94277609126189
  0
VERTEX
  5
30E
  8
LAYER0
 10
17.42947853287382
 20
28.59288295571537
 30
0.0
  0
VERTEX
  5
30F
  8
LAYER0
 10
17.2988926325481
 20
28.59288295571537
 30
0.0
 42
0.9427760912618856
  0
SEQEND
  5
3CE
  8
LAYER0
  0
POLYLINE
  5
9F
  8
LAYER0
 66
     1
 10
0.0
 20
0.0
 30
0.0
 70
     1
  0
VERTEX
  5
310
  8
LAYER0
 10
19.34418558271094
 20
28.38817590587823
 30
0.0
  0
VERTEX
  5
311
  8
LAYER0
 10
19.34418558271094
 20
26.90857025299409
 30
0.0
 42
0.9427760912618551
  0
VERTEX
  5
312
  8
LAYER0
 10
19.5488926325481
 20
26.70386320315695
 30
0.0
  0
VERTEX
  5
313
  8
LAYER0
 10
19.67947853287382
 20
26.70386320315695
 30
0.0
 42
0.9427760912618859
  0
VERTEX
  5
314
  8
LAYER0
 10
19.88418558271095
 20
26.90857025299409
 30
0.0
  0
VERTEX
  5
315
  8
LAYER0
 10
19.88418558271095
 20
28.38817590587823
 30
0.0
 42
0.9427760912618981
  0
VERTEX
  5
316
  8
LAYER0
 10
19.67947853287382
 20
28.59288295571537
 30
0.0
  0
VERTEX
  5
317
  8
LAYER0
 10
19.5488926325481
 20
28.59288295571537
 30
0.0
 42
0.9427760912618856
  0
SEQEND
  5
3CF
  8
LAYER0
  0
POLYLINE
  5
A0
  8
LAYER0
 66
     1
 10
0.0
 20
0.0
 30
0.0
 70
     1
  0
VERTEX
  5
318
  8
LAYER0
 10
19.67947853287382
 20
30.44801957550951
 30
0.0
 42
0.9427760912618962
  0
VERTEX
  5
319
  8
LAYER0
 10
19.88418558271095
 20
30.65272662534665
 30
0.0
  0
VERTEX
  5
31A
  8
LAYER0
 10
19.88418558271094
 20
31.16342797847948
 30
0.0
 42
0.9427760912619034
  0
VERTEX
  5
31B
  8
LAYER0
 10
19.67947853287382
 20
31.3681350283166
 30
0.0
  0
VERTEX
  5
31C
  8
LAYER0
 10
19.5488926325481
 20
31.36813502831661
 30
0.0
 42
0.9427760912618601
  0
VERTEX
  5
31D
  8
LAYER0
 10
19.34418558271094
 20
31.16342797847948
 30
0.0
  0
VERTEX
  5
31E
  8
LAYER0
 10
19.34418558271095
 20
30.65272662534665
 30
0.0
 42
0.9427760912618988
  0
VERTEX
  5
31F
  8
LAYER0
 10
19.5488926325481
 20
30.44801957550951
 30
0.0
  0
SEQEND
  5
3D0
  8
LAYER0
  0
POLYLINE
  5
A1
  8
LAYER0
 66
     1
 10
0.0
 20
0.0
 30
0.0
 70
     1
  0
VERTEX
  5
320
  8
LAYER0
 10
17.63418558271095
 20
31.16342797847948
 30
0.0
 42
0.9427760912618524
  0
VERTEX
  5
321
  8
LAYER0
 10
17.42947853287382
 20
31.3681350283166
 30
0.0
  0
VERTEX
  5
322
  8
LAYER0
 10
17.2988926325481
 20
31.36813502831661
 30
0.0
 42
0.9427760912618601
  0
VERTEX
  5
323
  8
LAYER0
 10
17.09418558271094
 20
31.16342797847948
 30
0.0
  0
VERTEX
  5
324
  8
LAYER0
 10
17.09418558271095
 20
30.65272662534665
 30
0.0
 42
0.9427760912618988
  0
VERTEX
  5
325
  8
LAYER0
 10
17.2988926325481
 20
30.44801957550951
 30
0.0
  0
VERTEX
  5
326
  8
LAYER0
 10
17.42947853287382
 20
30.44801957550951
 30
0.0
 42
0.9427760912619112
  0
VERTEX
  5
327
  8
LAYER0
 10
17.63418558271095
 20
30.65272662534665
 30
0.0
  0
SEQEND
  5
3D1
  8
LAYER0
  0
POLYLINE
  5
A2
  8
LAYER0
 66
     1
 10
0.0
 20
0.0
 30
0.0
 70
     1
  0
VERTEX
  5
328
  8
LAYER0
 10
46.00590551172
 20
12.17519685043999
 30
0.0
  0
VERTEX
  5
329
  8
LAYER0
 10
23.00590551172
 20
12.17519685043999
 30
0.0
  0
VERTEX
  5
32A
  8
LAYER0
 10
23.00590551172
 20
6.352103159034286
 30
0.0
  0
VERTEX
  5
32B
  8
LAYER0
 10
24.00590551171999
 20
6.352103159034264
 30
0.0
 42
-0.0651958709165447
  0
VERTEX
  5
32C
  8
LAYER0
 10
45.00590551171997
 20
6.352103159034279
 30
0.0
  0
VERTEX
  5
32D
  8
LAYER0
 10
46.00590551172
 20
6.352103159034286
 30
0.0
  0
SEQEND
  5
3D2
  8
LAYER0
  0
POLYLINE
  5
A3
  8
LAYER0
 66
     1
 10
0.0
 20
0.0
 30
0.0
 70
     1
  0
VERTEX
  5
32E
  8
LAYER0
 10
23.00590551172
 20
12.17519685044
 30
0.0
  0
VERTEX
  5
32F
  8
LAYER0
 10
46.00590551172
 20
12.17519685044
 30
0.0
  0
VERTEX
  5
330
  8
LAYER0
 10
46.00590551172
 20
6.352103159034296
 30
0.0
  0
VERTEX
  5
331
  8
LAYER0
 10
45.00590551171999
 20
6.352103159034325
 30
0.0
 42
0.0651958710273798
  0
VERTEX
  5
332
  8
LAYER0
 10
24.00590551171999
 20
6.352103159034304
 30
0.0
  0
VERTEX
  5
333
  8
LAYER0
 10
23.00590551172
 20
6.352103159034296
 30
0.0
  0
SEQEND
  5
3D3
  8
LAYER0
  0
POLYLINE
  5
A4
  8
LAYER0
 66
     1
 10
0.0
 20
0.0
 30
0.0
 70
     1
  0
VERTEX
  5
334
  8
LAYER0
 10
23.56561256155714
 20
11.45407583517017
 30
0.0
 42
0.9427760912618862
  0
VERTEX
  5
335
  8
LAYER0
 10
23.36090551172
 20
11.24936878533303
 30
0.0
  0
VERTEX
  5
336
  8
LAYER0
 10
23.36090551172
 20
10.85648698358692
 30
0.0
 42
0.9427760912618741
  0
VERTEX
  5
337
  8
LAYER0
 10
23.56561256155714
 20
10.65177993374979
 30
0.0
  0
VERTEX
  5
338
  8
LAYER0
 10
23.69619846188286
 20
10.65177993374979
 30
0.0
 42
0.9427760912618934
  0
VERTEX
  5
339
  8
LAYER0
 10
23.90090551172
 20
10.85648698358692
 30
0.0
  0
VERTEX
  5
33A
  8
LAYER0
 10
23.90090551172
 20
11.24936878533303
 30
0.0
 42
0.9427760912619058
  0
VERTEX
  5
33B
  8
LAYER0
 10
23.69619846188286
 20
11.45407583517017
 30
0.0
  0
SEQEND
  5
3D4
  8
LAYER0
  0
POLYLINE
  5
A5
  8
LAYER0
 66
     1
 10
0.0
 20
0.0
 30
0.0
 70
     1
  0
VERTEX
  5
33C
  8
LAYER0
 10
45.31561256155714
 20
11.45407583517017
 30
0.0
 42
0.9427760912618817
  0
VERTEX
  5
33D
  8
LAYER0
 10
45.11090551172
 20
11.24936878533303
 30
0.0
  0
VERTEX
  5
33E
  8
LAYER0
 10
45.11090551172
 20
10.85648698358692
 30
0.0
 42
0.9427760912618959
  0
VERTEX
  5
33F
  8
LAYER0
 10
45.31561256155715
 20
10.65177993374979
 30
0.0
  0
VERTEX
  5
340
  8
LAYER0
 10
45.44619846188287
 20
10.65177993374979
 30
0.0
 42
0.9427760912618834
  0
VERTEX
  5
341
  8
LAYER0
 10
45.65090551172
 20
10.85648698358692
 30
0.0
  0
VERTEX
  5
342
  8
LAYER0
 10
45.65090551172
 20
11.24936878533303
 30
0.0
 42
0.9427760912619143
  0
VERTEX
  5
343
  8
LAYER0
 10
45.44619846188286
 20
11.45407583517017
 30
0.0
  0
SEQEND
  5
3D5
  8
LAYER0
  0
POLYLINE
  5
A6
  8
LAYER0
 66
     1
 10
0.0
 20
0.0
 30
0.0
 70
     1
  0
VERTEX
  5
344
  8
LAYER0
 10
45.31561256155715
 20
9.929484032329425
 30
0.0
 42
0.9427760912618689
  0
VERTEX
  5
345
  8
LAYER0
 10
45.11090551171999
 20
9.724776982492278
 30
0.0
  0
VERTEX
  5
346
  8
LAYER0
 10
45.11090551172
 20
8.569599279325791
 30
0.0
 42
0.942776091261896
  0
VERTEX
  5
347
  8
LAYER0
 10
45.31561256155715
 20
8.364892229488653
 30
0.0
  0
VERTEX
  5
348
  8
LAYER0
 10
45.44619846188286
 20
8.364892229488655
 30
0.0
 42
0.9427760912618711
  0
VERTEX
  5
349
  8
LAYER0
 10
45.65090551172
 20
8.56959927932579
 30
0.0
  0
VERTEX
  5
34A
  8
LAYER0
 10
45.65090551172
 20
9.724776982492282
 30
0.0
 42
0.9427760912618495
  0
VERTEX
  5
34B
  8
LAYER0
 10
45.44619846188287
 20
9.929484032329416
 30
0.0
  0
SEQEND
  5
3D6
  8
LAYER0
  0
POLYLINE
  5
A7
  8
LAYER0
 66
     1
 10
0.0
 20
0.0
 30
0.0
 70
     1
  0
VERTEX
  5
34C
  8
LAYER0
 10
45.31561256155715
 20
7.642596328068266
 30
0.0
 42
0.942776091261892
  0
VERTEX
  5
34D
  8
LAYER0
 10
45.11090551171999
 20
7.437889278231125
 30
0.0
  0
VERTEX
  5
34E
  8
LAYER0
 10
45.11090551172001
 20
7.045007476485019
 30
0.0
 42
0.9427760912619115
  0
VERTEX
  5
34F
  8
LAYER0
 10
45.31561256155715
 20
6.840300426647883
 30
0.0
  0
VERTEX
  5
350
  8
LAYER0
 10
45.44619846188287
 20
6.840300426647883
 30
0.0
 42
0.9427760912618728
  0
VERTEX
  5
351
  8
LAYER0
 10
45.65090551172
 20
7.045007476485019
 30
0.0
  0
VERTEX
  5
352
  8
LAYER0
 10
45.65090551172
 20
7.437889278231132
 30
0.0
 42
0.9427760912618958
  0
VERTEX
  5
353
  8
LAYER0
 10
45.44619846188287
 20
7.642596328068263
 30
0.0
  0
SEQEND
  5
3D7
  8
LAYER0
  0
POLYLINE
  5
A8
  8
LAYER0
 66
     1
 10
0.0
 20
0.0
 30
0.0
 70
     1
  0
VERTEX
  5
354
  8
LAYER0
 10
23.56561256155714
 20
9.929484032329416
 30
0.0
 42
0.9427760912618638
  0
VERTEX
  5
355
  8
LAYER0
 10
23.36090551172
 20
9.72477698249228
 30
0.0
  0
VERTEX
  5
356
  8
LAYER0
 10
23.36090551172
 20
8.56959927932579
 30
0.0
 42
0.94277609126188
  0
VERTEX
  5
357
  8
LAYER0
 10
23.56561256155714
 20
8.364892229488653
 30
0.0
  0
VERTEX
  5
358
  8
LAYER0
 10
23.69619846188286
 20
8.364892229488651
 30
0.0
 42
0.9427760912618637
  0
VERTEX
  5
359
  8
LAYER0
 10
23.90090551172
 20
8.569599279325791
 30
0.0
  0
VERTEX
  5
35A
  8
LAYER0
 10
23.90090551172
 20
9.724776982492276
 30
0.0
 42
0.9427760912618806
  0
VERTEX
  5
35B
  8
LAYER0
 10
23.69619846188286
 20
9.929484032329416
 30
0.0
  0
SEQEND
  5
3D8
  8
LAYER0
  0
POLYLINE
  5
A9
  8
LAYER0
 66
     1
 10
0.0
 20
0.0
 30
0.0
 70
     1
  0
VERTEX
  5
35C
  8
LAYER0
 10
23.56561256155714
 20
7.642596328068256
 30
0.0
 42
0.9427760912618788
  0
VERTEX
  5
35D
  8
LAYER0
 10
23.36090551172
 20
7.437889278231121
 30
0.0
  0
VERTEX
  5
35E
  8
LAYER0
 10
23.36090551172
 20
7.045007476485011
 30
0.0
 42
0.9427760912618536
  0
VERTEX
  5
35F
  8
LAYER0
 10
23.56561256155714
 20
6.840300426647877
 30
0.0
  0
VERTEX
  5
360
  8
LAYER0
 10
23.69619846188286
 20
6.840300426647874
 30
0.0
 42
0.9427760912618834
  0
VERTEX
  5
361
  8
LAYER0
 10
23.90090551172
 20
7.045007476485013
 30
0.0
  0
VERTEX
  5
362
  8
LAYER0
 10
23.90090551172
 20
7.43788927823112
 30
0.0
 42
0.9427760912619059
  0
VERTEX
  5
363
  8
LAYER0
 10
23.69619846188286
 20
7.642596328068258
 30
0.0
  0
SEQEND
  5
3D9
  8
LAYER0
  0
POLYLINE
  5
AA
  8
LAYER0
 66
     1
 10
0.0
 20
0.0
 30
0.0
 70
     1
  0
VERTEX
  5
364
  8
LAYER0
 10
46.00590551172
 20
0.2694259937042753
 30
0.0
  0
VERTEX
  5
365
  8
LAYER0
 10
23.00590551172
 20
0.2694259937042753
 30
0.0
  0
VERTEX
  5
366
  8
LAYER0
 10
23.00590551172
 20
6.092519685109979
 30
0.0
  0
VERTEX
  5
367
  8
LAYER0
 10
24.00590551171999
 20
6.09251968511
 30
0.0
 42
0.0651958708129135
  0
VERTEX
  5
368
  8
LAYER0
 10
45.00590551171997
 20
6.092519685109984
 30
0.0
  0
VERTEX
  5
369
  8
LAYER0
 10
46.00590551172
 20
6.092519685109979
 30
0.0
  0
SEQEND
  5
3DA
  8
LAYER0
  0
POLYLINE
  5
AB
  8
LAYER0
 66
     1
 10
0.0
 20
0.0
 30
0.0
 70
     1
  0
VERTEX
  5
36A
  8
LAYER0
 10
45.31561256155715
 20
5.604322417496381
 30
0.0
 42
0.9427760912618914
  0
VERTEX
  5
36B
  8
LAYER0
 10
45.11090551172
 20
5.399615367659243
 30
0.0
  0
VERTEX
  5
36C
  8
LAYER0
 10
45.11090551172001
 20
5.006733565913136
 30
0.0
 42
0.9427760912619139
  0
VERTEX
  5
36D
  8
LAYER0
 10
45.31561256155715
 20
4.802026516075999
 30
0.0
  0
VERTEX
  5
36E
  8
LAYER0
 10
45.44619846188287
 20
4.802026516075992
 30
0.0
 42
0.9427760912618564
  0
VERTEX
  5
36F
  8
LAYER0
 10
45.65090551172
 20
5.006733565913137
 30
0.0
  0
VERTEX
  5
370
  8
LAYER0
 10
45.65090551172
 20
5.399615367659248
 30
0.0
 42
0.9427760912618943
  0
VERTEX
  5
371
  8
LAYER0
 10
45.44619846188287
 20
5.604322417496379
 30
0.0
  0
SEQEND
  5
3DB
  8
LAYER0
  0
POLYLINE
  5
AC
  8
LAYER0
 66
     1
 10
0.0
 20
0.0
 30
0.0
 70
     1
  0
VERTEX
  5
372
  8
LAYER0
 10
45.31561256155715
 20
4.079730614655618
 30
0.0
 42
0.9427760912619086
  0
VERTEX
  5
373
  8
LAYER0
 10
45.11090551172
 20
3.875023564818485
 30
0.0
  0
VERTEX
  5
374
  8
LAYER0
 10
45.11090551172001
 20
2.719845861651993
 30
0.0
 42
0.942776091261896
  0
VERTEX
  5
375
  8
LAYER0
 10
45.31561256155714
 20
2.51513881181486
 30
0.0
  0
VERTEX
  5
376
  8
LAYER0
 10
45.44619846188287
 20
2.515138811814857
 30
0.0
 42
0.9427760912618723
  0
VERTEX
  5
377
  8
LAYER0
 10
45.65090551172
 20
2.719845861651994
 30
0.0
  0
VERTEX
  5
378
  8
LAYER0
 10
45.65090551172
 20
3.875023564818488
 30
0.0
 42
0.9427760912618969
  0
VERTEX
  5
379
  8
LAYER0
 10
45.44619846188287
 20
4.079730614655618
 30
0.0
  0
SEQEND
  5
3DC
  8
LAYER0
  0
POLYLINE
  5
AD
  8
LAYER0
 66
     1
 10
0.0
 20
0.0
 30
0.0
 70
     1
  0
VERTEX
  5
37A
  8
LAYER0
 10
45.31561256155715
 20
1.792842910394476
 30
0.0
 42
0.9427760912618979
  0
VERTEX
  5
37B
  8
LAYER0
 10
45.11090551172
 20
1.588135860557339
 30
0.0
  0
VERTEX
  5
37C
  8
LAYER0
 10
45.11090551172
 20
1.195254058811231
 30
0.0
 42
0.9427760912618447
  0
VERTEX
  5
37D
  8
LAYER0
 10
45.31561256155714
 20
0.990547008974098
 30
0.0
  0
VERTEX
  5
37E
  8
LAYER0
 10
45.44619846188287
 20
0.9905470089740918
 30
0.0
 42
0.9427760912618639
  0
VERTEX
  5
37F
  8
LAYER0
 10
45.65090551172
 20
1.195254058811232
 30
0.0
  0
VERTEX
  5
380
  8
LAYER0
 10
45.65090551172
 20
1.588135860557342
 30
0.0
 42
0.9427760912618961
  0
VERTEX
  5
381
  8
LAYER0
 10
45.44619846188287
 20
1.792842910394474
 30
0.0
  0
SEQEND
  5
3DD
  8
LAYER0
  0
POLYLINE
  5
AE
  8
LAYER0
 66
     1
 10
0.0
 20
0.0
 30
0.0
 70
     1
  0
VERTEX
  5
382
  8
LAYER0
 10
23.56561256155714
 20
5.604322417496381
 30
0.0
 42
0.9427760912618722
  0
VERTEX
  5
383
  8
LAYER0
 10
23.36090551172
 20
5.399615367659243
 30
0.0
  0
VERTEX
  5
384
  8
LAYER0
 10
23.36090551172
 20
5.006733565913137
 30
0.0
 42
0.9427760912618549
  0
VERTEX
  5
385
  8
LAYER0
 10
23.56561256155714
 20
4.802026516075999
 30
0.0
  0
VERTEX
  5
386
  8
LAYER0
 10
23.69619846188286
 20
4.802026516075999
 30
0.0
 42
0.9427760912618723
  0
VERTEX
  5
387
  8
LAYER0
 10
23.90090551172
 20
5.006733565913138
 30
0.0
  0
VERTEX
  5
388
  8
LAYER0
 10
23.90090551172
 20
5.399615367659242
 30
0.0
 42
0.9427760912619058
  0
VERTEX
  5
389
  8
LAYER0
 10
23.69619846188286
 20
5.60432241749638
 30
0.0
  0
SEQEND
  5
3DE
  8
LAYER0
  0
POLYLINE
  5
AF
  8
LAYER0
 66
     1
 10
0.0
 20
0.0
 30
0.0
 70
     1
  0
VERTEX
  5
38A
  8
LAYER0
 10
23.56561256155714
 20
4.079730614655616
 30
0.0
 42
0.9427760912618679
  0
VERTEX
  5
38B
  8
LAYER0
 10
23.36090551172
 20
3.875023564818473
 30
0.0
  0
VERTEX
  5
38C
  8
LAYER0
 10
23.36090551172
 20
2.719845861651985
 30
0.0
 42
0.9427760912618541
  0
VERTEX
  5
38D
  8
LAYER0
 10
23.56561256155714
 20
2.515138811814847
 30
0.0
  0
VERTEX
  5
38E
  8
LAYER0
 10
23.69619846188286
 20
2.515138811814847
 30
0.0
 42
0.9427760912618814
  0
VERTEX
  5
38F
  8
LAYER0
 10
23.90090551172
 20
2.719845861651986
 30
0.0
  0
VERTEX
  5
390
  8
LAYER0
 10
23.90090551172
 20
3.875023564818472
 30
0.0
 42
0.9427760912618565
  0
VERTEX
  5
391
  8
LAYER0
 10
23.69619846188286
 20
4.079730614655613
 30
0.0
  0
SEQEND
  5
3DF
  8
LAYER0
  0
POLYLINE
  5
B0
  8
LAYER0
 66
     1
 10
0.0
 20
0.0
 30
0.0
 70
     1
  0
VERTEX
  5
392
  8
LAYER0
 10
23.56561256155714
 20
1.792842910394478
 30
0.0
 42
0.9427760912618572
  0
VERTEX
  5
393
  8
LAYER0
 10
23.36090551172
 20
1.588135860557339
 30
0.0
  0
VERTEX
  5
394
  8
LAYER0
 10
23.36090551172
 20
1.195254058811232
 30
0.0
 42
0.9427760912618549
  0
VERTEX
  5
395
  8
LAYER0
 10
23.56561256155714
 20
0.9905470089740938
 30
0.0
  0
VERTEX
  5
396
  8
LAYER0
 10
23.69619846188286
 20
0.9905470089740944
 30
0.0
 42
0.9427760912618813
  0
VERTEX
  5
397
  8
LAYER0
 10
23.90090551172
 20
1.195254058811231
 30
0.0
  0
VERTEX
  5
398
  8
LAYER0
 10
23.90090551172
 20
1.588135860557339
 30
0.0
 42
0.942776091261906
  0
VERTEX
  5
399
  8
LAYER0
 10
23.69619846188286
 20
1.792842910394477
 30
0.0
  0
SEQEND
  5
3E0
  8
LAYER0
  0
ENDSEC
  0
EOF
